<svg viewBox="0 0 833.74 850" xmlns="http://www.w3.org/2000/svg"><path d="m479.86 425.21 109.97-163.73-164.11 109.71-164.11-109.71 109.97 163.73-109.97 163.72 164.11-109.71 164.11 109.71z" fill="#656669"/><path d="m393.3 453.59 196.53 131.38-328.22-327.45z" fill="#14294c"/><path d="m261.61 257.52 328.22 327.45-131.69-196.07z" fill="#2e4160"/><path d="m393.3 388.9-131.69 196.07 328.22-327.45z" fill="#14294c"/><path d="m589.83 257.52-328.22 327.45 196.53-131.38z" fill="#2e4160"/><g fill="#14294c"><path d="m475.51 421.25a49.79 49.79 0 1 1 -49.79-49.67 49.72 49.72 0 0 1 49.79 49.67z"/><path d="m427 542.51c-68.1 0-123.51-55.28-123.51-123.23s55.42-123.23 123.51-123.23 123.52 55.28 123.52 123.23-55.4 123.23-123.52 123.23zm0-244.66c-67.11 0-121.72 54.47-121.72 121.43s54.62 121.44 121.72 121.44 121.72-54.48 121.72-121.44-54.59-121.43-121.72-121.43z"/><path d="m427 563.48c-79.7 0-144.54-64.69-144.54-144.2s64.85-144.2 144.54-144.2 144.54 64.69 144.54 144.2-64.83 144.2-144.54 144.2zm0-280c-75 0-136.09 60.91-136.09 135.77s61.09 135.8 136.09 135.8 136.1-60.9 136.1-135.77-61.05-135.77-136.1-135.77z"/><path d="m427 757.8a334 334 0 1 1 236.74-570.18 334 334 0 0 1 -236.74 570.18zm0-662a328.4 328.4 0 1 0 232.5 96.05 327 327 0 0 0 -232.5-96.07z"/><path d="m424.45 53.19h5.13v39.6h-5.13z"/><path d="m424.45 754.8h5.13v39.6h-5.13z"/><path d="m365.31 73.97h4v24.03h-4z" transform="matrix(.98474708 -.17399193 .17399193 .98474708 -9.36 65.25)"/><path d="m484.72 749.59h4v24.03h-4z" transform="matrix(.98474708 -.17399193 .17399193 .98474708 -125.1 96.31)"/><path d="m311.66 113.43-8.24-22.57 3.76-1.37 8.24 22.58z"/><path d="m546.85 758.1-8.24-22.57 3.76-1.37 8.24 22.58z"/><path d="m259.39 138.13-12.04-20.8 3.46-2 12.04 20.81z"/><path d="m603.22 732.26-12.04-20.8 3.46-2 12.04 20.81z"/><path d="m212.22 171.51-15.48-18.4 3.06-2.57 15.48 18.41z"/><path d="m654.23 697.05-15.48-18.4 3.07-2.57 15.47 18.41z"/><path d="m171.57 212.56-18.45-15.44 2.57-3.06 18.45 15.44z"/><path d="m698.34 653.54-18.45-15.45 2.57-3.05 18.45 15.44z"/><path d="m138.68 260.02-20.86-12.01 2-3.46 20.86 12.01z"/><path d="m734.21 603.04-20.86-12.01 2-3.46 20.86 12.02z"/><path d="m114.56 312.46-22.64-8.22 1.37-3.75 22.63 8.22z"/><path d="m760.74 547.1-22.63-8.22 1.37-3.75 22.63 8.22z"/><path d="m86.42 352.19h3.99v24.08h-3.99z" transform="matrix(.17313251 -.98489854 .98489854 .17313251 -285.62 388.26)"/><path d="m763.63 471.32h3.99v24.08h-3.99z" transform="matrix(.17313251 -.98489854 .98489854 .17313251 156.95 1153.68)"/><path d="m55.54 421.23h39.69v5.12h-39.69z"/><path d="m758.81 421.23h39.69v5.12h-39.69z"/><path d="m76.37 481.36h24.08v3.99h-24.08z" transform="matrix(.98474708 -.17399193 .17399193 .98474708 -82.74 22.75)"/><path d="m753.58 362.23h24.08v3.99h-24.08z" transform="matrix(.98474708 -.17399193 .17399193 .98474708 -51.69 138.74)"/><path d="m93.3 547.1-1.37-3.75 22.63-8.22 1.36 3.75z"/><path d="m739.48 312.46-1.37-3.75 22.63-8.22 1.37 3.75z"/><path d="m119.83 603.04-2-3.46 20.85-12.01 2 3.46z"/><path d="m715.35 260.02-2-3.46 20.86-12.01 2 3.45z"/><path d="m155.69 653.53-2.57-3.05 18.45-15.45 2.57 3.06z"/><path d="m682.47 212.55-2.58-3.05 18.45-15.45 2.57 3.06z"/><path d="m199.8 697.05-3.06-2.57 15.48-18.4 3.06 2.56z"/><path d="m641.82 171.51-3.07-2.57 15.48-18.4 3.07 2.56z"/><path d="m250.82 732.26-3.47-2 12.04-20.81 3.47 2z"/><path d="m594.64 138.13-3.46-2 12.04-20.8 3.46 1.99z"/><path d="m307.18 758.1-3.76-1.37 8.24-22.58 3.76 1.37z"/><path d="m542.37 113.43-3.75-1.37 8.23-22.57 3.76 1.36z"/><path d="m355.3 759.6h24.03v4h-24.03z" transform="matrix(.17313251 -.98489854 .98489854 .17313251 -446.39 991.47)"/><path d="m474.71 83.98h24.03v4h-24.03z" transform="matrix(.17313251 -.98489854 .98489854 .17313251 317.75 550.46)"/><path d="m414.3 79.04h1.71v11.87h-1.71z" transform="matrix(1 -.03 .03 1 -2.71 14.53)"/><path d="m438.02 756.68h1.71v11.87h-1.71z" transform="matrix(.99938472 -.03507392 .03507392 .99938472 -26.42 15.83)"/><path d="m402.45 79.66h1.71v11.87h-1.71z" transform="matrix(1 -.07 .07 1 -4.99 28.37)"/><path d="m449.86 756.06h1.71v11.87h-1.71z" transform="matrix(.99755186 -.06993058 .06993058 .99755186 -52.14 33.36)"/><path d="m390.63 80.69h1.71v11.87h-1.71z" transform="matrix(.99450364 -.10470204 .10470204 .99450364 -6.92 41.44)"/><path d="m461.68 755.03h1.71v11.87h-1.71z" transform="matrix(.99450364 -.10470204 .10470204 .99450364 -77.16 52.63)"/><path d="m378.86 82.13h1.71v11.87h-1.71z" transform="matrix(.99024376 -.13934593 .13934593 .99024376 -8.57 53.78)"/><path d="m473.45 753.59h1.71v11.88h-1.71z" transform="matrix(.99021943 -.13951876 .13951876 .99021943 -101.32 73.6)"/><path d="m356.76 98.16-2.47-11.62 1.67-.35 2.47 11.61z"/><path d="m496.81 749.48h1.71v11.87h-1.71z" transform="matrix(.9780386 -.20842382 .20842382 .9780386 -146.51 120.3)"/><path d="m345.41 100.8-2.88-11.52 1.66-.41 2.88 11.52z"/><path d="m509.83 758.72-2.88-11.52 1.67-.41 2.88 11.52z"/><path d="m334.16 103.84-3.28-11.41 1.65-.47 3.28 11.41z"/><path d="m521.5 755.64-3.28-11.42 1.64-.47 3.29 11.42z"/><path d="m323.02 107.27-3.67-11.29 1.63-.53 3.67 11.29z"/><path d="m533.05 752.14-3.68-11.29 1.63-.53 3.68 11.3z"/><path d="m301.15 115.28-4.46-11.01 1.59-.64 4.45 11.01z"/><path d="m555.75 743.97-4.46-11.01 1.59-.64 4.46 11.01z"/><path d="m290.43 119.85-4.84-10.85 1.57-.69 4.84 10.84z"/><path d="m566.87 739.29-4.84-10.85 1.57-.69 4.84 10.84z"/><path d="m279.88 124.79-5.21-10.67 1.53-.75 5.22 10.67z"/><path d="m577.83 734.23-5.22-10.68 1.53-.75 5.22 10.68z"/><path d="m269.51 130.09-5.58-10.48 1.51-.8 5.58 10.48z"/><path d="m588.59 728.78-5.59-10.48 1.52-.8 5.58 10.48z"/><path d="m249.36 141.77-6.31-10.07 1.45-.91 6.31 10.07z"/><path d="m609.52 716.8-6.3-10.07 1.45-.91 6.31 10.07z"/><path d="m239.6 148.13-6.65-9.85 1.42-.95 6.65 9.84z"/><path d="m619.66 710.26-6.65-9.84 1.42-.95 6.65 9.84z"/><path d="m230.07 154.82-6.99-9.6 1.38-1.01 7 9.61z"/><path d="m629.57 703.38-7-9.6 1.38-1.01 7 9.61z"/><path d="m220.78 161.84-7.32-9.35 1.35-1.05 7.32 9.35z"/><path d="m639.22 696.16-7.32-9.36 1.35-1.05 7.32 9.36z"/><path d="m202.97 176.83-7.96-8.82 1.27-1.15 7.96 8.83z"/><path d="m657.75 680.73-7.96-8.83 1.27-1.14 7.96 8.83z"/><path d="m194.47 184.78-8.27-8.54 1.23-1.18 8.27 8.54z"/><path d="m666.6 672.54-8.27-8.54 1.23-1.19 8.27 8.54z"/><path d="m186.25 193.03-8.56-8.25 1.19-1.23 8.56 8.25z"/><path d="m675.15 664.05-8.56-8.25 1.19-1.23 8.56 8.25z"/><path d="m178.32 201.55-8.84-7.95 1.15-1.26 8.84 7.94z"/><path d="m683.4 655.26-8.84-7.94 1.15-1.28 8.84 7.95z"/><path d="m163.39 219.4-9.38-7.31 1.05-1.35 9.38 7.31z"/><path d="m698.97 636.85-9.38-7.31 1.05-1.34 9.38 7.31z"/><path d="m156.4 228.7-9.63-6.98 1.01-1.38 9.62 6.98z"/><path d="m706.25 627.25-9.62-6.98 1-1.38 9.63 6.98z"/><path d="m149.74 238.24-9.87-6.64.96-1.41 9.86 6.64z"/><path d="m713.2 617.41-9.87-6.64.96-1.42 9.87 6.64z"/><path d="m143.41 248.01-10.08-6.29.9-1.45 10.09 6.29z"/><path d="m719.8 607.33-10.09-6.3.91-1.44 10.09 6.29z"/><path d="m131.82 268.17-10.51-5.57.8-1.51 10.51 5.57z"/><path d="m731.92 586.5-10.51-5.57.81-1.51 10.5 5.57z"/><path d="m126.55 278.55-10.69-5.21.75-1.53 10.69 5.2z"/><path d="m737.43 575.79-10.7-5.21.75-1.53 10.7 5.2z"/><path d="m121.65 289.1-10.87-4.84.7-1.56 10.87 4.84z"/><path d="m742.55 564.89-10.87-4.83.7-1.56 10.87 4.83z"/><path d="m117.13 299.81-11.03-4.45.64-1.58 11.03 4.45z"/><path d="m747.29 553.82-11.03-4.45.64-1.59 11.04 4.45z"/><path d="m109.21 321.68-11.31-3.67.53-1.63 11.31 3.67z"/><path d="m755.61 531.21-11.32-3.67.53-1.62 11.32 3.66z"/><path d="m105.83 332.8-11.43-3.27.47-1.64 11.44 3.27z"/><path d="m752.83 511.29h1.71v11.9h-1.71z" transform="matrix(.275134 -.96140589 .96140589 .275134 49 1099.48)"/><path d="m96.43 335.83h1.71v11.9h-1.71z" transform="matrix(.24141382 -.97042226 .97042226 .24141382 -257.87 353.65)"/><path d="m762.32 508.08-11.55-2.87.41-1.66 11.55 2.87z"/><path d="m93.76 347.36h1.71v11.9h-1.71z" transform="matrix(.20774097 -.97818387 .97818387 .20774097 -270.64 372.47)"/><path d="m765.06 496.35-11.64-2.47.35-1.67 11.65 2.47z"/><path d="m89.64 370.66h1.71v11.9h-1.71z" transform="matrix(.13882742 -.99031659 .99031659 .13882742 -295.04 413.92)"/><path d="m762.69 465.03h1.71v11.9h-1.71z" transform="matrix(.14 -.99 .99 .14 191.07 1161.7)"/><path d="m88.2 382.41h1.71v11.9h-1.71z" transform="matrix(.10452846 -.9945219 .9945219 .10452846 -306.49 436.33)"/><path d="m764.13 453.28h1.71v11.9h-1.71z" transform="matrix(.10452846 -.9945219 .9945219 .10452846 228.31 1172.03)"/><path d="m87.16 394.2h1.71v11.9h-1.71z" transform="matrix(.07 -1 1 .07 -317.29 460.07)"/><path d="m765.16 441.49h1.71v11.9h-1.71z" transform="matrix(.06940825 -.99758834 .99758834 .06940825 266.44 1180.53)"/><path d="m86.54 406.01h1.71v11.9h-1.71z" transform="matrix(.03507392 -.99938472 .99938472 .03507392 -327.38 484.87)"/><path d="m765.78 429.68h1.71v11.9h-1.71z" transform="matrix(.0348995 -.99939083 .99939083 .0348995 304.57 1186.63)"/><path d="m81.45 434.77h11.9v1.71h-11.9z" transform="matrix(1 -.03 .03 1 -15.15 3.32)"/><path d="m760.69 411.11h11.9v1.71h-11.9z" transform="matrix(.99939083 -.0348995 .0348995 .99939083 -13.91 27)"/><path d="m82.07 446.59h11.9v1.71h-11.9z" transform="matrix(.99756405 -.06975647 .06975647 .99756405 -30.98 7.23)"/><path d="m760.07 399.29h11.9v1.71h-11.9z" transform="matrix(.99756405 -.06975647 .06975647 .99756405 -26.04 54.38)"/><path d="m83.1 458.38h11.9v1.71h-11.9z" transform="matrix(.99450364 -.10470204 .10470204 .99450364 -47.57 11.84)"/><path d="m759.03 387.5h11.9v1.71h-11.9z" transform="matrix(.99444868 -.10522275 .10522275 .99444868 -36.6 82.61)"/><path d="m84.55 470.13h11.9v1.71h-11.9z" transform="matrix(.99021943 -.13951876 .13951876 .99021943 -64.83 17.23)"/><path d="m757.59 375.76h11.9v1.71h-11.9z" transform="matrix(.99021943 -.13951876 .13951876 .99021943 -45.08 110.21)"/><path d="m88.97 496.35-.35-1.67 11.64-2.47.35 1.67z"/><path d="m753.78 355.38-.36-1.68 11.64-2.46.36 1.67z"/><path d="m91.33 504.96h11.9v1.71h-11.9z" transform="matrix(.97016892 -.24242991 .24242991 .97016892 -119.72 38.67)"/><path d="m751.18 344.04-.41-1.66 11.55-2.87.41 1.66z"/><path d="m94.87 519.7-.47-1.64 11.44-3.27.47 1.64z"/><path d="m748.2 332.8-.47-1.64 11.44-3.27.47 1.64z"/><path d="m98.43 531.21-.53-1.63 11.32-3.66.52 1.62z"/><path d="m744.82 321.67-.53-1.62 11.32-3.67.52 1.63z"/><path d="m106.74 553.81-.64-1.58 11.03-4.45.64 1.59z"/><path d="m736.9 299.81-.64-1.59 11.04-4.45.64 1.59z"/><path d="m111.48 564.88-.7-1.55 10.88-4.83.69 1.55z"/><path d="m732.38 289.09-.7-1.56 10.87-4.83.7 1.56z"/><path d="m116.61 575.78-.75-1.53 10.69-5.2.75 1.53z"/><path d="m727.48 278.54-.75-1.53 10.7-5.21.75 1.54z"/><path d="m122.12 586.5-.81-1.51 10.51-5.57.8 1.51z"/><path d="m722.22 268.17-.81-1.51 10.51-5.57.8 1.51z"/><path d="m134.23 607.32-.9-1.45 10.09-6.29.91 1.45z"/><path d="m710.62 248-.91-1.44 10.09-6.3.91 1.45z"/><path d="m140.83 617.4-.95-1.41 9.86-6.64.96 1.42z"/><path d="m704.29 238.24-.96-1.42 9.87-6.64.96 1.42z"/><path d="m147.78 627.25-1.01-1.38 9.63-6.98 1.01 1.38z"/><path d="m697.63 228.7-1-1.38 9.63-6.98 1 1.38z"/><path d="m155.07 636.85-1.06-1.35 9.38-7.31 1.05 1.35z"/><path d="m690.64 219.39-1.05-1.34 9.38-7.31 1.05 1.35z"/><path d="m170.63 655.26-1.15-1.27 8.84-7.95 1.15 1.27z"/><path d="m675.71 201.54-1.15-1.26 8.85-7.95 1.14 1.27z"/><path d="m178.88 664.04-1.19-1.23 8.56-8.24 1.19 1.22z"/><path d="m667.78 193.02-1.19-1.23 8.57-8.25 1.19 1.23z"/><path d="m187.44 672.53-1.24-1.18 8.27-8.54 1.23 1.18z"/><path d="m659.56 184.78-1.23-1.19 8.27-8.54 1.23 1.19z"/><path d="m196.28 680.72-1.27-1.14 7.96-8.82 1.28 1.14z"/><path d="m651.06 176.83-1.27-1.15 7.96-8.82 1.27 1.15z"/><path d="m214.81 696.15-1.35-1.05 7.33-9.35 1.35 1.05z"/><path d="m633.25 161.83-1.35-1.05 7.33-9.35 1.34 1.05z"/><path d="m224.47 703.38-1.39-1.01 7-9.6 1.38 1z"/><path d="m623.95 154.82-1.38-1.01 7-9.6 1.38 1z"/><path d="m234.37 710.26-1.42-.96 6.65-9.84 1.42.96z"/><path d="m614.43 148.12-1.42-.95 6.65-9.85 1.42.96z"/><path d="m244.51 716.79-1.45-.9 6.3-10.07 1.45.91z"/><path d="m604.67 141.76-1.45-.9 6.3-10.07 1.46.91z"/><path d="m265.44 728.78-1.51-.8 5.58-10.49 1.52.8z"/><path d="m584.52 130.09-1.51-.8 5.58-10.49 1.52.8z"/><path d="m276.21 734.22-1.54-.75 5.22-10.67 1.54.75z"/><path d="m574.14 124.79-1.53-.75 5.22-10.68 1.54.75z"/><path d="m287.16 739.28-1.57-.69 4.85-10.85 1.56.7z"/><path d="m563.6 119.84-1.56-.69 4.84-10.85 1.56.7z"/><path d="m298.28 743.96-1.59-.64 4.46-11.01 1.59.64z"/><path d="m552.88 115.27-1.59-.64 4.46-11 1.59.64z"/><path d="m320.98 752.14-1.63-.53 3.68-11.29 1.63.53z"/><path d="m531 107.26-1.62-.52 3.67-11.3 1.63.53z"/><path d="m332.53 755.63-1.65-.47 3.29-11.41 1.64.47z"/><path d="m519.87 103.84-1.65-.47 3.28-11.42 1.65.47z"/><path d="m344.2 758.72-1.66-.42 2.87-11.52 1.66.42z"/><path d="m508.62 100.8-1.66-.41 2.88-11.53 1.66.42z"/><path d="m350.43 754.56h11.87v1.71h-11.87z" transform="matrix(.20774097 -.97818387 .97818387 .20774097 -456.59 947.11)"/><path d="m497.27 98.15-1.68-.35 2.48-11.61 1.68.36z"/><path d="m373.78 758.67h11.88v1.71h-11.88z" transform="matrix(.13882742 -.99031659 .99031659 .13882742 -425.19 1030.06)"/><path d="m468.37 87.2h11.88v1.71h-11.88z" transform="matrix(.13882742 -.99031659 .99031659 .13882742 321.22 545.54)"/><path d="m385.56 760.11h11.87v1.71h-11.87z" transform="matrix(.1041813 -.99455832 .99455832 .1041813 -406.12 1071.05)"/><path d="m456.6 85.76h11.88v1.71h-11.88z" transform="matrix(.1041813 -.99455832 .99455832 .1041813 328.2 537.61)"/><path d="m397.38 761.14h11.87v1.71h-11.87z" transform="matrix(.06940825 -.99758834 .99758834 .06940825 -384.85 1111.42)"/><path d="m444.78 84.73h11.87v1.71h-11.87z" transform="matrix(.06940825 -.99758834 .99758834 .06940825 334.04 529.27)"/><path d="m409.22 761.76h11.87v1.71h-11.87z" transform="matrix(.03472507 -.9993969 .9993969 .03472507 -361.43 1151.02)"/><path d="m432.94 84.11h11.87v1.71h-11.87z" transform="matrix(.04 -1 1 .04 338.48 520.57)"/><path d="m427 796.4a372.28 372.28 0 1 1 344.14-517.64 372.87 372.87 0 0 1 -344.14 517.64zm0-741.21a368.29 368.29 0 1 0 340.46 512.09 368.85 368.85 0 0 0 -340.46-512.09z"/><path d="m427.16 651.15h-.16c-2.16 0-4.34 0-6.48-.09a2.73 2.73 0 1 1 .15-5.46c2.09.06 4.22.09 6.33.09h.14a2.73 2.73 0 1 1 0 5.46zm13.09-.38a2.73 2.73 0 0 1 -.16-5.46c2.14-.13 4.31-.28 6.45-.47a2.74 2.74 0 1 1 .48 5.45c-2.19.19-4.42.35-6.61.47zm-32.71-.45h-.23c-2.2-.19-4.42-.41-6.6-.66a2.73 2.73 0 0 1 .63-5.43c2.12.25 4.29.46 6.43.65a2.73 2.73 0 0 1 -.23 5.45zm52.24-1.53a2.73 2.73 0 0 1 -.39-5.44c2.12-.3 4.26-.65 6.38-1a2.73 2.73 0 1 1 1 5.38c-2.17.38-4.37.73-6.54 1zm-71.71-1a2.56 2.56 0 0 1 -.47 0c-2.17-.38-4.36-.79-6.51-1.23a2.73 2.73 0 1 1 1.09-5.35c2.1.42 4.24.83 6.36 1.2a2.73 2.73 0 0 1 -.47 5.42zm91-2.68a2.73 2.73 0 0 1 -.63-5.39c2.09-.5 4.2-1 6.27-1.58a2.73 2.73 0 0 1 1.42 5.28c-2.12.56-4.28 1.11-6.43 1.61a2.72 2.72 0 0 1 -.63.09zm-110.18-1.53a2.94 2.94 0 0 1 -.71-.09c-2.11-.56-4.25-1.17-6.37-1.8a2.73 2.73 0 1 1 1.56-5.23c2.07.61 4.16 1.2 6.23 1.75a2.73 2.73 0 0 1 -.71 5.37zm129.11-3.81a2.73 2.73 0 0 1 -.86-5.32c2-.68 4.09-1.39 6.11-2.13a2.73 2.73 0 1 1 1.87 5.14c-2.06.75-4.17 1.48-6.26 2.17a2.54 2.54 0 0 1 -.86.14zm-147.8-2a2.81 2.81 0 0 1 -.94-.16c-2.08-.76-4.17-1.55-6.21-2.36a2.73 2.73 0 1 1 2-5.08c2 .79 4 1.57 6.06 2.3a2.73 2.73 0 0 1 -.93 5.3zm166.13-4.92a2.73 2.73 0 0 1 -1.09-5.24c2-.85 3.95-1.74 5.88-2.64a2.73 2.73 0 1 1 2.32 5c-2 .93-4 1.84-6 2.71a2.83 2.83 0 0 1 -1.15.12zm-184.33-2.64a2.77 2.77 0 0 1 -1.15-.25c-2-.93-4-1.9-6-2.89a2.73 2.73 0 1 1 2.46-4.88c1.92 1 3.88 1.91 5.83 2.82a2.72 2.72 0 0 1 -1.16 5.2zm201.95-6a2.73 2.73 0 0 1 -1.3-5.13c1.88-1 3.78-2.08 5.63-3.15a2.74 2.74 0 0 1 2.75 4.73c-1.9 1.1-3.85 2.18-5.78 3.22a2.65 2.65 0 0 1 -1.33.38zm-219.39-3.11a2.71 2.71 0 0 1 -1.37-.37c-1.91-1.1-3.83-2.24-5.7-3.39a2.73 2.73 0 1 1 2.88-4.65c1.82 1.12 3.7 2.24 5.56 3.31a2.73 2.73 0 0 1 -1.37 5.1zm236.22-6.93a2.73 2.73 0 0 1 -1.5-5c1.78-1.17 3.58-2.39 5.34-3.62a2.73 2.73 0 1 1 3.14 4.47c-1.8 1.27-3.64 2.52-5.47 3.72a2.8 2.8 0 0 1 -1.54.48zm-252.78-3.56a2.66 2.66 0 0 1 -1.56-.5c-1.81-1.26-3.62-2.56-5.38-3.87a2.74 2.74 0 1 1 3.27-4.39c1.72 1.28 3.49 2.56 5.25 3.79a2.73 2.73 0 0 1 -1.58 5zm268.7-7.86a2.73 2.73 0 0 1 -1.7-4.88c1.69-1.33 3.37-2.7 5-4.07a2.73 2.73 0 1 1 3.52 4.18c-1.68 1.41-3.4 2.81-5.13 4.18a2.76 2.76 0 0 1 -1.74.59zm-284.28-4.08a2.73 2.73 0 0 1 -1.76-.64c-1.69-1.41-3.38-2.87-5-4.32a2.74 2.74 0 0 1 3.64-4.09c1.61 1.43 3.25 2.85 4.9 4.22a2.73 2.73 0 0 1 -1.76 4.83zm299.13-8.73a2.73 2.73 0 0 1 -1.88-4.72c1.56-1.47 3.12-3 4.64-4.5a2.73 2.73 0 0 1 3.87 3.86c-1.56 1.56-3.16 3.11-4.75 4.61a2.74 2.74 0 0 1 -1.93.75zm-313.61-4.51a2.72 2.72 0 0 1 -1.94-.8c-1.56-1.55-3.11-3.14-4.62-4.73a2.74 2.74 0 1 1 4-3.76c1.47 1.56 3 3.11 4.51 4.63a2.72 2.72 0 0 1 0 3.86 2.68 2.68 0 0 1 -2 .8zm327.29-9.54a2.74 2.74 0 0 1 -2-4.55c1.43-1.6 2.85-3.24 4.23-4.89a2.74 2.74 0 0 1 4.2 3.52c-1.42 1.68-2.88 3.37-4.34 5a2.72 2.72 0 0 1 -2.14.92zm-340.62-4.89a2.72 2.72 0 0 1 -2.09-1c-1.42-1.68-2.83-3.4-4.19-5.12a2.73 2.73 0 1 1 4.29-3.39c1.33 1.67 2.71 3.35 4.09 5a2.74 2.74 0 0 1 -2.1 4.49zm353-10.3a2.73 2.73 0 0 1 -2.19-4.37c1.29-1.72 2.56-3.48 3.8-5.23a2.74 2.74 0 0 1 4.48 3.14c-1.26 1.79-2.57 3.6-3.89 5.36a2.74 2.74 0 0 1 -2.21 1.1zm-365-5.22a2.74 2.74 0 0 1 -2.25-1.16c-1.26-1.8-2.51-3.63-3.72-5.46a2.74 2.74 0 0 1 4.57-3c1.18 1.78 2.4 3.58 3.63 5.33a2.73 2.73 0 0 1 -.66 3.81 2.77 2.77 0 0 1 -1.53.48zm376-11a2.78 2.78 0 0 1 -1.44-.41 2.72 2.72 0 0 1 -.89-3.76c1.13-1.83 2.25-3.69 3.33-5.55a2.74 2.74 0 0 1 4.74 2.74c-1.11 1.9-2.25 3.81-3.41 5.68a2.74 2.74 0 0 1 -2.28 1.31zm-386.53-5.48a2.73 2.73 0 0 1 -2.37-1.36c-1.1-1.9-2.19-3.83-3.23-5.76a2.73 2.73 0 0 1 4.81-2.6c1 1.88 2.08 3.77 3.16 5.62a2.74 2.74 0 0 1 -2.37 4.1zm396.18-11.62a2.69 2.69 0 0 1 -1.23-.3 2.72 2.72 0 0 1 -1.22-3.66c1-1.91 1.92-3.87 2.83-5.82a2.74 2.74 0 0 1 5 2.31c-.93 2-1.91 4-2.9 6a2.72 2.72 0 0 1 -2.48 1.46zm-405.26-5.72a2.72 2.72 0 0 1 -2.48-1.58c-.93-2-1.85-4-2.72-6a2.74 2.74 0 0 1 5-2.17c.85 2 1.74 3.94 2.65 5.87a2.73 2.73 0 0 1 -1.32 3.63 2.68 2.68 0 0 1 -1.13.25zm413.32-12.19a2.75 2.75 0 0 1 -1-.2 2.72 2.72 0 0 1 -1.53-3.55c.79-2 1.57-4 2.3-6a2.74 2.74 0 0 1 5.15 1.86c-.75 2.07-1.55 4.16-2.36 6.2a2.76 2.76 0 0 1 -2.56 1.69zm-420.85-5.86a2.75 2.75 0 0 1 -2.57-1.8c-.75-2.06-1.49-4.16-2.18-6.24a2.74 2.74 0 0 1 5.2-1.72c.67 2 1.39 4.07 2.13 6.09a2.74 2.74 0 0 1 -1.64 3.5 2.56 2.56 0 0 1 -.94.17zm427.3-12.67a3 3 0 0 1 -.78-.11 2.74 2.74 0 0 1 -1.84-3.4c.61-2.05 1.2-4.14 1.76-6.21a2.74 2.74 0 1 1 5.29 1.41c-.57 2.12-1.18 4.27-1.8 6.36a2.74 2.74 0 0 1 -2.63 1.95zm-433.22-6a2.73 2.73 0 0 1 -2.64-2c-.57-2.12-1.12-4.28-1.63-6.41a2.74 2.74 0 0 1 5.33-1.27c.5 2.09 1 4.19 1.59 6.26a2.74 2.74 0 0 1 -1.94 3.35 2.88 2.88 0 0 1 -.71.06zm438-13a3.53 3.53 0 0 1 -.56-.05 2.74 2.74 0 0 1 -2.13-3.23c.43-2.1.84-4.23 1.21-6.34a2.74 2.74 0 0 1 5.39.94c-.38 2.17-.79 4.35-1.24 6.5a2.72 2.72 0 0 1 -2.65 2.18zm-442.28-6.13a2.75 2.75 0 0 1 -2.69-2.26c-.38-2.15-.73-4.35-1.06-6.53a2.74 2.74 0 0 1 5.42-.79c.32 2.13.66 4.27 1 6.37a2.72 2.72 0 0 1 -2.22 3.16 2.61 2.61 0 0 1 -.43.05zm445.4-13.21h-.32a2.73 2.73 0 0 1 -2.4-3c.24-2.12.46-4.28.65-6.42a2.74 2.74 0 0 1 5.45.47c-.19 2.19-.41 4.4-.66 6.58a2.75 2.75 0 0 1 -2.72 2.37zm-447.94-6.22a2.73 2.73 0 0 1 -2.72-2.49c-.19-2.18-.36-4.4-.49-6.59a2.74 2.74 0 0 1 5.48-.3c.13 2.14.29 4.3.47 6.43a2.72 2.72 0 0 1 -2.49 3zm449.34-13.32h-.07a2.73 2.73 0 0 1 -2.65-2.81c.06-2.14.09-4.31.09-6.45v-.55a2.74 2.74 0 0 1 5.47 0v.56c0 2.2 0 4.42-.09 6.62a2.73 2.73 0 0 1 -2.75 2.63zm-450.2-6.25a2.74 2.74 0 0 1 -2.74-2.73v-.27c0-2.11 0-4.23.09-6.34a2.74 2.74 0 0 1 5.47.15c-.06 2.05-.08 4.13-.08 6.18v.28a2.74 2.74 0 0 1 -2.74 2.73zm449.89-13.9a2.73 2.73 0 0 1 -2.73-2.57c-.13-2.14-.29-4.31-.48-6.43a2.74 2.74 0 0 1 5.45-.49c.2 2.18.36 4.4.49 6.6a2.74 2.74 0 0 1 -2.57 2.89zm-449.07-5.67h-.24a2.74 2.74 0 0 1 -2.49-3c.18-2.18.4-4.39.65-6.57a2.74 2.74 0 0 1 5.45.62c-.25 2.13-.46 4.29-.65 6.42a2.73 2.73 0 0 1 -2.72 2.53zm447.05-13.81a2.74 2.74 0 0 1 -2.71-2.34c-.31-2.11-.66-4.26-1-6.36a2.74 2.74 0 0 1 5.39-1c.39 2.16.75 4.35 1.07 6.53a2.73 2.73 0 0 1 -2.31 3.1zm-444.54-5.62a2.56 2.56 0 0 1 -.47 0 2.73 2.73 0 0 1 -2.23-3.16c.38-2.16.79-4.34 1.23-6.5a2.74 2.74 0 0 1 5.37 1.09c-.43 2.11-.84 4.24-1.2 6.35a2.74 2.74 0 0 1 -2.7 2.22zm440.8-13.62a2.73 2.73 0 0 1 -2.66-2.1c-.5-2.07-1-4.17-1.59-6.25a2.73 2.73 0 1 1 5.28-1.42c.58 2.12 1.13 4.28 1.63 6.41a2.72 2.72 0 0 1 -2 3.29 2.85 2.85 0 0 1 -.66.07zm-436.61-5.52a2.94 2.94 0 0 1 -.71-.09 2.73 2.73 0 0 1 -1.94-3.34c.56-2.12 1.17-4.26 1.8-6.37a2.74 2.74 0 0 1 5.25 1.56c-.62 2.06-1.21 4.15-1.76 6.21a2.72 2.72 0 0 1 -2.62 2.03zm431.22-13.32a2.73 2.73 0 0 1 -2.6-1.86c-.68-2-1.4-4.08-2.14-6.09a2.74 2.74 0 0 1 5.15-1.88c.75 2.06 1.49 4.16 2.19 6.24a2.72 2.72 0 0 1 -1.73 3.45 2.64 2.64 0 0 1 -.85.14zm-425.33-5.35a2.76 2.76 0 0 1 -.93-.16 2.73 2.73 0 0 1 -1.64-3.5c.75-2.07 1.54-4.15 2.35-6.2a2.74 2.74 0 1 1 5.09 2c-.79 2-1.56 4-2.3 6.05a2.73 2.73 0 0 1 -2.57 1.81zm418.33-12.9a2.72 2.72 0 0 1 -2.51-1.64c-.86-2-1.75-3.93-2.66-5.86a2.74 2.74 0 1 1 5-2.32c.93 2 1.84 4 2.72 6a2.73 2.73 0 0 1 -1.42 3.6 2.83 2.83 0 0 1 -1.13.2zm-410.82-5.24a2.75 2.75 0 0 1 -2.48-3.89c.94-2 1.91-4 2.89-6a2.74 2.74 0 0 1 4.9 2.45c-1 1.9-1.91 3.86-2.82 5.82a2.76 2.76 0 0 1 -2.49 1.6zm402.21-12.35a2.75 2.75 0 0 1 -2.41-1.43c-1-1.88-2.09-3.77-3.16-5.61a2.74 2.74 0 1 1 4.73-2.75c1.1 1.89 2.19 3.83 3.24 5.75a2.73 2.73 0 0 1 -2.4 4zm-393.16-5.08a2.74 2.74 0 0 1 -2.36-4.1c1.1-1.91 2.24-3.82 3.4-5.69a2.74 2.74 0 0 1 4.66 2.87c-1.13 1.82-2.24 3.69-3.32 5.55a2.74 2.74 0 0 1 -2.36 1.37zm383.06-11.69a2.74 2.74 0 0 1 -2.29-1.23c-1.18-1.78-2.41-3.58-3.64-5.32a2.74 2.74 0 0 1 4.48-3.15c1.26 1.79 2.52 3.63 3.73 5.46a2.74 2.74 0 0 1 -2.28 4.24zm-372.5-4.85a2.66 2.66 0 0 1 -1.56-.5 2.73 2.73 0 0 1 -.68-3.8c1.26-1.79 2.57-3.6 3.88-5.37a2.74 2.74 0 0 1 4.4 3.26c-1.29 1.73-2.56 3.49-3.79 5.24a2.73 2.73 0 0 1 -2.23 1.17zm361-11a2.76 2.76 0 0 1 -2.15-1c-1.33-1.67-2.7-3.35-4.09-5a2.74 2.74 0 0 1 4.19-3.52c1.42 1.68 2.83 3.4 4.19 5.11a2.74 2.74 0 0 1 -2.14 4.44zm-349-4.57a2.74 2.74 0 0 1 -2.1-4.49c1.42-1.68 2.88-3.37 4.33-5a2.73 2.73 0 0 1 4.1 3.62c-1.43 1.6-2.85 3.25-4.23 4.89a2.72 2.72 0 0 1 -2.12.99zm336.14-10.22a2.73 2.73 0 0 1 -2-.86c-1.48-1.56-3-3.11-4.51-4.62a2.73 2.73 0 1 1 3.86-3.87c1.56 1.55 3.11 3.14 4.63 4.74a2.74 2.74 0 0 1 -2 4.61zm-322.88-4.24a2.74 2.74 0 0 1 -1.94-4.66c1.55-1.55 3.15-3.1 4.75-4.61a2.73 2.73 0 1 1 3.76 4c-1.56 1.47-3.12 3-4.63 4.5a2.77 2.77 0 0 1 -1.96.78zm308.77-9.39a2.74 2.74 0 0 1 -1.82-.69c-1.61-1.43-3.25-2.84-4.9-4.22a2.74 2.74 0 1 1 3.52-4.19c1.68 1.41 3.37 2.86 5 4.32a2.73 2.73 0 0 1 -1.82 4.78zm-294.33-3.85a2.73 2.73 0 0 1 -1.77-4.82c1.68-1.41 3.4-2.82 5.13-4.19a2.74 2.74 0 0 1 3.41 4.28c-1.69 1.34-3.37 2.71-5 4.09a2.73 2.73 0 0 1 -1.77.64zm279.06-8.51a2.76 2.76 0 0 1 -1.63-.53c-1.72-1.28-3.49-2.55-5.25-3.78a2.74 2.74 0 1 1 3.14-4.48c1.8 1.26 3.62 2.56 5.38 3.87a2.73 2.73 0 0 1 -1.64 4.92zm-263.51-3.44a2.73 2.73 0 0 1 -1.58-5c1.8-1.26 3.64-2.51 5.47-3.72a2.73 2.73 0 0 1 3 4.56c-1.79 1.18-3.59 2.4-5.34 3.63a2.71 2.71 0 0 1 -1.55.53zm247.24-7.55a2.68 2.68 0 0 1 -1.43-.41c-1.84-1.13-3.71-2.24-5.57-3.31a2.73 2.73 0 1 1 2.74-4.73c1.9 1.09 3.82 2.23 5.7 3.39a2.73 2.73 0 0 1 .9 3.76 2.77 2.77 0 0 1 -2.34 1.3zm-230.72-3a2.74 2.74 0 0 1 -1.38-5.1c1.9-1.1 3.84-2.18 5.77-3.23a2.74 2.74 0 1 1 2.61 4.81c-1.88 1-3.77 2.07-5.63 3.15a2.71 2.71 0 0 1 -1.37.37zm213.54-6.55a2.67 2.67 0 0 1 -1.22-.29c-1.92-1-3.89-1.9-5.84-2.81a2.73 2.73 0 1 1 2.31-4.95c2 .92 4 1.89 6 2.88a2.73 2.73 0 0 1 -1.23 5.17zm-196.17-2.52a2.73 2.73 0 0 1 -1.16-5.21c2-.93 4-1.84 6-2.71a2.73 2.73 0 1 1 2.18 5c-2 .85-3.94 1.74-5.88 2.65a2.83 2.83 0 0 1 -1.14.27zm178.22-5.49a2.74 2.74 0 0 1 -1-.19c-2-.79-4-1.56-6.07-2.29a2.73 2.73 0 1 1 1.87-5.14c2.07.75 4.17 1.54 6.22 2.35a2.73 2.73 0 0 1 -1 5.27zm-160.14-2a2.73 2.73 0 0 1 -.94-5.3c2.06-.75 4.17-1.48 6.26-2.18a2.73 2.73 0 1 1 1.73 5.18c-2 .68-4.09 1.4-6.1 2.13a2.65 2.65 0 0 1 -.95.14zm141.56-4.37a3 3 0 0 1 -.78-.11c-2.06-.61-4.15-1.2-6.23-1.75a2.73 2.73 0 1 1 1.41-5.28c2.12.56 4.27 1.17 6.38 1.79a2.73 2.73 0 0 1 -.78 5.35zm-122.84-1.55a2.73 2.73 0 0 1 -.71-5.37c2.13-.57 4.29-1.12 6.43-1.62a2.73 2.73 0 1 1 1.26 5.31c-2.08.5-4.19 1-6.26 1.59a3 3 0 0 1 -.72.06zm103.79-3.19a2.57 2.57 0 0 1 -.55-.06c-2.1-.42-4.24-.83-6.36-1.19a2.73 2.73 0 1 1 .94-5.38c2.16.37 4.36.78 6.51 1.22a2.73 2.73 0 0 1 -.54 5.41zm-84.62-1.06a2.74 2.74 0 0 1 -.48-5.43c2.16-.38 4.36-.73 6.55-1.05a2.73 2.73 0 1 1 .79 5.4c-2.13.31-4.28.66-6.38 1a2.61 2.61 0 0 1 -.48.05zm65.22-2h-.31c-2.14-.24-4.3-.46-6.44-.64a2.73 2.73 0 1 1 .47-5.44c2.18.18 4.4.4 6.59.65a2.73 2.73 0 0 1 -.31 5.45zm-45.73-.6a2.74 2.74 0 0 1 -.23-5.46c2.19-.19 4.41-.35 6.61-.48a2.73 2.73 0 1 1 .32 5.45c-2.14.13-4.31.29-6.45.48zm26.17-.8h-.07c-2-.06-4-.08-6.05-.08h-.42a2.74 2.74 0 1 1 0-5.47h.37c2 0 4.13 0 6.19.09a2.73 2.73 0 0 1 -.08 5.46z"/><path d="m831.08 422.08h-14.53v13.44h16.19v4h-21v-37.25h20.18v4h-15.37v11.78h14.53z"/><path d="m833.74 440.55h-23v-39.27h22.18v6h-15.37v9.78h14.53v6h-14.53v11.45h16.19zm-21-2h19v-2.05h-16.19v-15.42h14.53v-2h-14.53v-13.77h15.36v-2h-18.18z"/><path d="m414.33 38.28v-37.28h5.27l12 18.86a107.28 107.28 0 0 1 6.69 12.14h.11c-.45-5-.56-9.52-.56-15.32v-15.68h4.55v37.28h-4.88l-11.87-18.92a119.2 119.2 0 0 1 -7-12.44h-.17c.28 4.7.39 9.18.39 15.38v15.98z"/><path d="m443.39 39.28h-6.39l-12.2-19.39c-2.06-3.27-3.73-6.11-5.1-8.68.13 3.3.18 6.79.18 11.14v16.93h-6.55v-39.28h6.82l12.27 19.33c1.75 2.76 3.29 5.39 4.65 8-.18-3.47-.23-6.89-.23-10.68v-16.65h6.55zm-5.33-2h3.33v-35.28h-2.55v14.6c0 5.43.1 10.11.55 15.23l.06.68-1.64.81-.43-.93a105.82 105.82 0 0 0 -6.65-12l-11.68-18.39h-3.72v35.28h2.55v-14.93c0-6.23-.11-10.66-.39-15.32v-.76l1.74-.59.38.81a114.49 114.49 0 0 0 6.92 12.34z"/><path d="m418.24 842.59a17.18 17.18 0 0 0 8.65 2.43c4.93 0 7.82-2.6 7.82-6.36 0-3.49-2-5.48-7-7.41-6.1-2.16-9.87-5.31-9.87-10.57 0-5.81 4.82-10.12 12.08-10.12a16.94 16.94 0 0 1 8.27 1.83l-1.34 3.92a14.89 14.89 0 0 0 -7.09-1.77c-5.1 0-7 3-7 5.59 0 3.48 2.27 5.2 7.43 7.19 6.32 2.43 9.53 5.47 9.53 10.95 0 5.75-4.27 10.73-13.08 10.73-3.61 0-7.54-1-9.54-2.38z"/><path d="m426.56 850c-3.69 0-7.84-1-10.09-2.55l-.62-.41 1.81-6 1.11.68a16.19 16.19 0 0 0 8.12 2.28c4.21 0 6.82-2 6.82-5.36 0-2.55-1-4.43-6.4-6.48-7.07-2.5-10.51-6.26-10.51-11.5 0-6.55 5.38-11.12 13.08-11.12a17.76 17.76 0 0 1 8.76 2l.72.4-2 5.84-1-.57a13.81 13.81 0 0 0 -6.62-1.65c-4.46 0-6 2.47-6 4.59 0 2.75 1.65 4.27 6.79 6.26 7.13 2.74 10.17 6.3 10.17 11.88-.06 5.39-3.7 11.71-14.14 11.71zm-8.36-3.83a19.74 19.74 0 0 0 8.36 1.83c7.34 0 12.08-3.82 12.08-9.73 0-4.75-2.49-7.56-8.89-10-5.11-2-8.07-3.94-8.07-8.12 0-3.17 2.51-6.59 8-6.59a15.9 15.9 0 0 1 6.51 1.37l.69-2a16.85 16.85 0 0 0 -7-1.32c-6.52 0-11.08 3.75-11.08 9.12 0 4.35 2.92 7.41 9.2 9.63 4.64 1.78 7.71 3.87 7.71 8.35s-3.46 7.36-8.82 7.36a18.11 18.11 0 0 1 -8.05-2z"/><path d="m6.34 412.78 3.54 13.61c.78 3 1.5 5.75 2 8.52h.17c.61-2.71 1.49-5.59 2.38-8.47l4.38-13.66h4.1l4.16 13.39c1 3.21 1.78 6 2.39 8.74h.16a84.19 84.19 0 0 1 2.05-8.69l3.83-13.44h4.82l-8.65 26.77h-4.43l-4.1-12.77a88.85 88.85 0 0 1 -2.39-8.8h-.11a78 78 0 0 1 -2.44 8.85l-4.32 12.72h-4.44l-8.09-26.77z"/><path d="m32.4 440.55h-5.89l-4.33-13.47c-.55-1.75-1-3.37-1.48-5-.5 1.82-1 3.51-1.55 5.09l-4.56 13.41h-5.89l-8.7-28.8h7.11l3.74 14.36c.43 1.64.84 3.21 1.2 4.75.45-1.58.94-3.17 1.43-4.74l4.6-14.37h5.57l4.35 14.09c.54 1.75 1 3.36 1.42 4.87.39-1.63.83-3.24 1.26-4.79l4-14.17h7zm-4.43-2h3l8-24.78h-2.71l-3.62 12.73a78 78 0 0 0 -2 8.57l-.14.84h-1.84l-.18-.78c-.59-2.63-1.34-5.38-2.36-8.67l-3.94-12.68h-2.64l-4.16 13c-.86 2.8-1.76 5.7-2.36 8.38l-.17.78h-1.85l-.14-.83c-.49-2.71-1.21-5.46-2-8.38l-3.3-12.95h-2.87l7.49 24.78h3l4.09-12.05a77.69 77.69 0 0 0 2.41-8.73l.17-.79h1.73l.17.79a88 88 0 0 0 2.36 8.7z"/><path d="m720.75 113.7 14.7-14.6 2.43 2.43-1.88 12.92a58.55 58.55 0 0 1 -1.68 7.84h.07a78.5 78.5 0 0 1 5.78-6.26l6.16-6.11 2.09 2.1-14.7 14.6-2.25-2.25 2-12.89a64.9 64.9 0 0 1 1.69-8.1h-.1c-1.72 2-3.44 3.77-5.88 6.2l-6.28 6.24z"/><path d="m753.37 132.63-6.7-6.71-5.3 5.27 7.46 7.47-1.59 1.58-9.68-9.7 14.7-14.6 9.3 9.32-1.56 1.58-7.08-7.09-4.64 4.61 6.69 6.71z"/><path d="m113.37 138.3-14.63-14.67 2.44-2.42 12.94 1.92a55.59 55.59 0 0 1 7.86 1.68v-.07a80.24 80.24 0 0 1 -6.27-5.77l-6.12-6.14 2.1-2.09 14.64 14.67-2.26 2.24-12.92-2a62.15 62.15 0 0 1 -8.12-1.69v.1c2 1.73 3.78 3.44 6.21 5.87l6.26 6.27z"/><path d="m133.08 118.73-19-10.31 2.36-2.34 9.45 5.38c2.34 1.32 4.63 2.69 6.35 3.79h.05a72 72 0 0 1 -3.67-6.49l-5.1-9.76 2.34-2.32 9.53 5.35a70.81 70.81 0 0 1 6.22 3.83c-1.24-2-2.38-4.08-3.67-6.45l-5.1-9.66 2.28-2.27 9.79 19.52-2.34 2.32-9.8-5.47a54.66 54.66 0 0 1 -5.9-3.67h-.06a57.23 57.23 0 0 1 3.45 6.12l5.15 10.08z"/><path d="m148.47 729.36a12.53 12.53 0 0 0 -3-4.94c-2.28-2.28-4.63-2.6-6.11-1.12s-1.24 3.06.32 6.15c2 3.66 2.45 6.64.38 8.7-2.29 2.27-6.21 1.73-9.56-1.62a12.88 12.88 0 0 1 -3.09-4.53l2.16-.92a11.17 11.17 0 0 0 2.58 4c2.35 2.35 4.44 2.06 5.44 1.06 1.38-1.37 1-3.09-.58-6.25-2-3.87-2.24-6.55-.08-8.69s6.2-2.23 10.26 1.84a14.39 14.39 0 0 1 3.46 5.33z"/><path d="m135.08 711.32-10.34 19-2.35-2.32 5.4-9.44c1.32-2.33 2.69-4.61 3.8-6.33h-.05a70.39 70.39 0 0 1 -6.51 3.66l-9.71 5.06-2.32-2.43 5.37-9.5a68.26 68.26 0 0 1 3.84-6.21h-.06c-2 1.24-4.09 2.38-6.46 3.66l-9.69 5.04-2.27-2.28 19.58-9.71 2.32 2.33-5.48 9.78a52.86 52.86 0 0 1 -3.68 5.89l.06.05a56.44 56.44 0 0 1 6.12-3.43l10.1-5.14z"/><path d="m718.06 139.49-23.32 23.27 2.85 2.84 23.32-23.27z"/><path d="m169.17 687.1-23.32 23.26 2.85 2.84 23.32-23.27z"/><path d="m692.52 682.04-2.84 2.84 23.32 23.26 2.84-2.83z"/><path d="m140.79 137.28 23.32 23.26 2.84-2.84-23.32-23.26z"/><path d="m743.26 704.11a12.66 12.66 0 0 0 -5 3c-2.28 2.26-2.6 4.61-1.12 6.09s3.07 1.24 6.17-.32c3.67-1.95 6.65-2.45 8.71-.38 2.28 2.29 1.75 6.2-1.62 9.54a12.75 12.75 0 0 1 -4.54 3.08l-.86-2.12a11.2 11.2 0 0 0 4-2.56c2.32-2.37 2-4.44 1-5.44-1.36-1.37-3.09-1-6.26.59-3.88 1.95-6.56 2.23-8.71.07s-2.24-6.18 1.84-10.23a14.36 14.36 0 0 1 5.35-3.45z"/><path d="m725.91 730.44 6.72-6.68-5.28-5.28-7.49 7.44-1.58-1.59 9.72-9.66 14.64 14.67-9.34 9.27-1.59-1.61 7.11-7.06-4.63-4.64-6.72 6.7z"/></g><path d="m464.81 421.21a37.43 37.43 0 0 0 -1-8.53l-36.68-303.86-36.69 303.86a37.43 37.43 0 0 0 -1 8.53c0 .67 0 1.35.05 2s-.05 1.34-.05 2a38 38 0 0 0 1 8.53l36.7 303.86 36.69-303.85a37.58 37.58 0 0 0 1-8.54c0-.67 0-1.35-.06-2s.04-1.33.04-2zm-37.68 19.93a17.92 17.92 0 1 1 18.17-17.91 18.15 18.15 0 0 1 -18.17 17.91z" fill="#1a1a1a"/><path d="m424.7 461.92a37.67 37.67 0 0 0 8.55-1l304.58-36.6-304.57-36.6a37.69 37.69 0 0 0 -8.56-1c-.68 0-1.35 0-2 .06s-1.34-.06-2-.06a37.67 37.67 0 0 0 -8.55 1l-304.62 36.61 304.57 36.6a37.67 37.67 0 0 0 8.55 1c.68 0 1.35 0 2-.06s1.35.05 2.05.05zm-20-37.59a18 18 0 1 1 18 18.13 18.15 18.15 0 0 1 -17.98-18.13z" fill="#1a1a1a"/><path d="m426.35 442.07a18.16 18.16 0 0 1 -18.18-18.14h-297.17l304.57 36.61a37.65 37.65 0 0 0 46.23-36.61h-17.27a18.16 18.16 0 0 1 -18.18 18.14z" fill="#2e4160"/><path d="m424.1 386.34a38.24 38.24 0 0 0 -8.55 1l-304.55 36.59h297.17a18.18 18.18 0 0 1 36.36 0h17.25a37.64 37.64 0 0 0 -37.68-37.59z" fill="#14294c"/><path d="m425.65 405.79a18.16 18.16 0 0 1 18.19 18.14h297.16l-304.57-36.6a37.66 37.66 0 0 0 -46.24 36.6h17.25a18.16 18.16 0 0 1 18.21-18.14z" fill="#14294c"/><path d="m427.9 461.53a37.67 37.67 0 0 0 8.55-1l304.55-36.6h-297.16a18.19 18.19 0 0 1 -36.37 0h-17.25a37.64 37.64 0 0 0 37.68 37.6z" fill="#2e4160"/><path d="m446.83 419.47a21.11 21.11 0 1 1 -21.11-21.05 21.08 21.08 0 0 1 21.11 21.05z" fill="#cfd1d2"/><path d="m445.64 419.47a19.92 19.92 0 1 1 -19.92-19.87 19.89 19.89 0 0 1 19.92 19.87z" fill="#919395"/><ellipse cx="425.72" cy="419.47" fill="#cfd1d2" rx="11.26" ry="11.23"/><ellipse cx="425.72" cy="419.47" fill="#a5a6a9" rx="9.78" ry="9.76"/><path d="m434 419.47a8.23 8.23 0 1 1 -8.23-8.2 8.23 8.23 0 0 1 8.23 8.2z" fill="#1a1a1a"/><path d="m431.5 419.47a5.78 5.78 0 1 1 -5.78-5.76 5.77 5.77 0 0 1 5.78 5.76z" fill="#14294c"/></svg>