<svg viewBox="0 0 75.36 628.58" xmlns="http://www.w3.org/2000/svg"><path d="m55.86 313.94a18.16 18.16 0 0 1 -18.18 18.14v296.49l36.69-303.85a37.56 37.56 0 0 0 -36.69-46.13v17.21a18.16 18.16 0 0 1 18.18 18.14z" fill="#3a6477"/><path d="m0 316.18a37.43 37.43 0 0 0 1 8.53l36.68 303.87v-296.5a18.14 18.14 0 1 1 0-36.28v-17.21a37.64 37.64 0 0 0 -37.68 37.59z" fill="#4c819e"/><path d="m19.5 314.64a18.17 18.17 0 0 1 18.18-18.15v-296.49l-36.68 303.86a37.56 37.56 0 0 0 36.68 46.14v-17.22a18.16 18.16 0 0 1 -18.18-18.14z" fill="#892121"/><path d="m75.36 312.39a37.5 37.5 0 0 0 -1-8.53l-36.68-303.86v296.49a18.15 18.15 0 1 1 0 36.29v17.22a37.64 37.64 0 0 0 37.68-37.61z" fill="#682121"/><path d="m5 34.68v46.14a1.91 1.91 0 0 0 1.45 1.85l7.48 1.87 7.64-3.85 8.92 8 6.51 1.63a1.82 1.82 0 0 0 .46.06 1.84 1.84 0 0 0 .47-.06l30.59-7.65a1.9 1.9 0 0 0 1.48-1.85v-46.14l-32.5 8.13z" fill="#505050"/><path d="m37.5 42.81v47.57a1.84 1.84 0 0 0 .47-.06l30.59-7.65a1.9 1.9 0 0 0 1.44-1.85v-46.14z" fill="#373737"/><path d="m5 39.88v11.59l32 8a2.19 2.19 0 0 0 .93 0l32-8v-11.59l-32.43 8.12z" fill="#ffe132"/><path d="m38 59.48 32-8v-11.6l-32.5 8.12v11.53a2.42 2.42 0 0 0 .5-.05z" fill="#fac80f"/><path d="m37.5 44.24a1.82 1.82 0 0 1 -.46-.06l-30.59-7.65a1.91 1.91 0 0 1 0-3.7l30.55-7.65a1.83 1.83 0 0 1 .93 0l30.59 7.65a1.91 1.91 0 0 1 0 3.7l-30.52 7.65a1.84 1.84 0 0 1 -.5.06z" fill="#646464"/><path d="m38 44.18 30.59-7.65a1.91 1.91 0 0 0 0-3.7l-30.59-7.65a1.84 1.84 0 0 0 -.47-.06v19.12a1.84 1.84 0 0 0 .47-.06z" fill="#505050"/><path d="m29.05 67.81-12.75-3.19a1.91 1.91 0 0 0 -2.37 1.86v18.06l16.56 4.14v-19a1.91 1.91 0 0 0 -1.44-1.87z" fill="#ffe132"/><path d="m17.75 85.5 8.92 2.23v-16.57l-8.92-2.23z" fill="#fac80f"/></svg>