<?xml version="1.0" standalone="no"?>
<!DOCTYPE svg PUBLIC "-//W3C//DTD SVG 20010904//EN"
 "http://www.w3.org/TR/2001/REC-SVG-20010904/DTD/svg10.dtd">
<svg version="1.0" xmlns="http://www.w3.org/2000/svg"
 width="699.000000pt" height="586.000000pt" viewBox="0 0 699.000000 586.000000"
 preserveAspectRatio="xMidYMid meet">

<g transform="translate(0.000000,586.000000) scale(0.100000,-0.100000)"
fill="#000000" stroke="none">
<path d="M3105 5165 l-347 -355 -494 0 c-486 0 -494 0 -515 -21 -20 -20 -20
-27 -18 -520 l2 -501 -346 -347 c-298 -298 -347 -351 -347 -376 -1 -26 44 -74
352 -376 l353 -346 5 -502 c5 -488 6 -503 25 -518 17 -13 83 -14 515 -10 l495
4 350 -348 c303 -301 355 -349 380 -349 26 0 77 48 378 355 l349 355 494 0
c493 0 494 0 516 22 l21 21 -7 496 -6 495 350 351 c302 303 350 355 350 381 0
25 -47 76 -355 377 l-355 349 0 494 c0 491 0 494 -21 515 l-22 22 -496 -5
-496 -5 -352 348 c-303 302 -355 349 -381 349 -26 0 -74 -46 -377 -355z m724
-121 l340 -335 478 2 478 2 6 -219 c4 -121 7 -336 8 -480 l1 -261 341 -338
340 -338 -33 -36 c-18 -20 -170 -174 -337 -343 l-304 -307 7 -479 6 -479 -211
-6 c-117 -4 -334 -7 -484 -7 l-271 0 -338 -340 c-186 -187 -341 -340 -345
-340 -3 0 -157 151 -342 336 l-336 335 -480 -3 -480 -3 -7 89 c-3 49 -6 265
-6 480 l1 391 -341 337 c-187 185 -340 340 -340 344 0 5 151 160 337 346 l336
337 -5 479 -6 479 211 6 c115 4 333 7 483 7 l272 0 334 340 c183 187 336 340
340 340 4 0 160 -151 347 -336z"/>
<path d="M3155 4874 l-300 -305 -422 1 c-420 0 -423 0 -445 -22 l-21 -21 6
-424 5 -425 -296 -300 c-238 -240 -298 -306 -300 -330 -3 -27 23 -55 300 -327
l303 -298 4 -428 c3 -413 4 -428 24 -448 19 -19 26 -20 444 -12 l424 7 302
-301 c238 -236 309 -301 329 -301 20 0 90 65 328 305 l304 305 423 0 c415 0
423 0 444 21 21 21 21 24 14 447 l-7 427 301 300 c246 245 301 305 301 327 0
22 -56 82 -305 329 l-305 302 0 427 c0 410 -1 428 -19 445 -19 16 -50 17 -448
14 l-427 -4 -302 298 c-255 252 -306 297 -330 297 -25 0 -75 -47 -329 -306z
m625 -119 l286 -285 410 0 411 0 6 -152 c4 -83 7 -266 7 -407 l0 -256 292
-292 293 -293 -288 -288 -287 -288 0 -411 0 -411 -22 -6 c-13 -3 -196 -6 -408
-6 l-385 0 -292 -292 -292 -292 -290 287 -290 287 -415 0 -416 0 0 407 0 407
-292 293 -292 292 287 291 287 290 0 409 0 409 23 6 c12 3 195 6 407 6 l384 0
291 290 c159 159 292 290 295 290 2 0 133 -128 290 -285z"/>
</g>
</svg>
