<?xml version="1.0" standalone="no"?>
<!DOCTYPE svg PUBLIC "-//W3C//DTD SVG 20010904//EN"
 "http://www.w3.org/TR/2001/REC-SVG-20010904/DTD/svg10.dtd">
<svg version="1.0" xmlns="http://www.w3.org/2000/svg"
 width="512.000000pt" height="512.000000pt" viewBox="0 0 512.000000 512.000000"
 preserveAspectRatio="xMidYMid meet">

<g transform="translate(0.000000,512.000000) scale(0.100000,-0.100000)"
fill="#000000" stroke="none">
<path d="M2180 4745 l-375 -375 -527 0 -528 0 0 -527 0 -528 -377 -377 -378
-378 378 -378 377 -377 0 -528 0 -527 527 0 528 0 377 -377 378 -378 378 378
377 377 528 0 527 0 0 527 0 528 377 377 378 378 -378 378 -377 377 0 528 0
527 -528 0 -527 0 -375 375 c-206 206 -377 375 -380 375 -3 0 -174 -169 -380
-375z m695 -365 l310 -310 442 0 443 0 0 -442 0 -443 312 -312 313 -313 -313
-313 -312 -312 0 -443 0 -442 -442 0 -443 0 -312 -312 -313 -313 -313 313
-312 312 -443 0 -442 0 0 442 0 443 -312 312 -313 313 313 313 312 312 0 443
0 442 443 0 442 0 310 310 c170 171 312 310 315 310 3 0 145 -139 315 -310z"/>
<path d="M2305 4020 l-250 -250 -352 0 -353 0 0 -352 0 -353 -252 -252 -253
-253 253 -253 252 -252 0 -353 0 -352 352 0 353 0 252 -252 253 -253 253 253
252 252 353 0 352 0 0 352 0 353 252 252 253 253 -253 253 -252 252 0 353 0
352 -353 0 -352 0 -250 250 c-137 138 -252 250 -255 250 -3 0 -118 -112 -255
-250z m445 -365 l185 -185 267 0 268 0 0 -267 0 -268 187 -187 188 -188 -188
-188 -187 -187 0 -268 0 -267 -267 0 -268 0 -187 -187 -188 -188 -188 188
-187 187 -268 0 -267 0 0 267 0 268 -187 187 -188 188 188 188 187 187 0 268
0 267 268 0 267 0 185 185 c102 102 187 185 190 185 3 0 88 -83 190 -185z"/>
</g>
</svg>
