<?xml version="1.0" encoding="utf-8"?>
<!-- Generator: Adobe Illustrator 19.0.0, SVG Export Plug-In . SVG Version: 6.00 Build 0)  -->
<svg version="1.1" id="Layer_1" xmlns="http://www.w3.org/2000/svg" xmlns:xlink="http://www.w3.org/1999/xlink" x="0px" y="0px"
	 viewBox="0 0 128 128" style="enable-background:new 0 0 128 128;" xml:space="preserve">
<path id="XMLID_65_" d="M63.4,0C72-0.1,80.3,1.6,88.2,4.8C98.8,9.2,107.6,16,114.6,25c4.7,6.1,8.3,12.8,10.5,20.2
	c2.8,9.7,3.7,19.5,1.9,29.6c-1.2,6.5-3.2,12.8-6.2,18.7c-4,8.1-9.8,14.9-16.8,20.6c-3.7,3-7.8,5.4-12.1,7.5c-3.7,1.8-7.6,3-11.6,4.2
	c-8.4,2.4-16.9,3-25.6,1.5c-5.5-0.9-10.9-2.1-15.9-4.4c-4-1.8-7.8-4.1-11.5-6.5c-5.3-3.4-9.7-7.8-13.6-12.8c-3.1-4-5.8-8.2-7.8-12.9
	c-1.4-3.2-2.8-6.5-3.7-9.9C0.5,74.4-0.2,67.7,0.1,61c0.2-5.6,1.1-11.2,3-16.5C4.8,40,6.8,35.6,9,31.3c2.7-5.1,6.5-9.5,10.7-13.5
	c4.6-4.4,9.8-8,15.5-10.9c6-3.1,12.4-5,19-6.1C57.3,0.3,60.3,0.2,63.4,0z M64.1,123.2c1.9-0.1,4.7,0.1,7.3-0.5
	c4.4-0.9,8.7-1.7,13-3.4c4.5-1.7,8.6-4,12.5-6.6c5.2-3.5,9.6-7.8,13.4-12.7c3-4,5.4-8.3,7.4-12.9c3-6.9,4.3-14.1,4.5-21.5
	c0.2-8.8-1.6-17.3-5.4-25.4c-2.2-4.8-5-9.3-8.5-13.3c-4.6-5.2-9.8-9.7-16-13.1C87,10.9,81.5,8.7,75.7,7.6c-5.5-1.1-11.1-1.5-16.7-1
	c-11.1,1.1-21,4.8-29.9,11.5C20,25,13.6,33.7,9.6,44.2c-3.7,9.7-4.6,19.6-3,29.8c1.4,9,4.8,17.2,10.2,24.6c2.1,2.9,4.7,5.4,7.1,8
	c3.6,3.9,8,6.9,12.6,9.4c3.5,1.9,7.4,3.3,11.3,4.6C52.8,122.4,58,123.2,64.1,123.2z"/>
<path id="XMLID_54_" d="M69.2,75.7c0,3.9,0,7.9,0,11.8c0,3.3-1,4.4-4.3,4.6c-0.9,0.1-1.9,0.1-2.8,0c-1.7-0.1-2.8-1.2-3.2-2.8
	c-0.2-0.8-0.3-1.7-0.3-2.6c-0.1-7.7-0.1-15.4-0.1-23.1c0-3,1.6-4.8,4.7-4.9c0.6,0,1.2,0,1.7,0c2.9,0.1,4.5,1.7,4.6,4.6
	c0.1,4.1,0,8.2,0,12.3C69.4,75.7,69.3,75.7,69.2,75.7z"/>
<path id="XMLID_53_" d="M69.6,41.8c-0.1,0.9,0,1.9-0.4,2.6c-0.6,1-1.4,2.4-2.3,2.7c-2.1,0.6-4.4,1-6.5-0.4c-1.4-0.9-2.1-2.1-2.1-3.7
	c0-1.8-0.3-3.8,1.1-5.3c0.2-0.3,0.5-0.6,0.8-0.8c2.4-1,4.9-1.1,7.2-0.2C69.5,37.5,69.8,39.6,69.6,41.8z"/>
</svg>
