<?xml version="1.0" encoding="utf-8"?>
<!-- Generator: Adobe Illustrator 19.0.0, SVG Export Plug-In . SVG Version: 6.00 Build 0)  -->
<svg version="1.1" id="Layer_1" xmlns="http://www.w3.org/2000/svg" xmlns:xlink="http://www.w3.org/1999/xlink" x="0px" y="0px"
	 viewBox="0 0 128 128" style="enable-background:new 0 0 128 128;" xml:space="preserve">
<path id="XMLID_49_" d="M64.2,0c2.6,0.6,5.3,1.3,8,2c4.2,1.1,8.5,2.3,12.7,3.4c7.6,2,15.3,4.1,22.9,6.1c5.6,1.5,11.2,3,16.8,4.4
	c2.5,0.7,3.7,1.9,3.4,4.9c-0.3,3,0.1,6.1,0,9.1c0,20.2,0.1,40.5,0,60.7c0,6.4,0,12.5,0,17.3c0,2-1,2.7-2.8,3.2
	c-4.2,1.2-8.3,2.4-12.5,3.6c-3.8,1-7.7,1.9-11.5,3c-4.1,1.1-8.2,2.4-12.3,3.5c-2.2,0.6-4.5,1.1-6.7,1.7c-2.5,0.7-4.9,1.5-7.4,2.1
	c-2.4,0.7-4.8,1.2-7.2,1.9c-0.9,0.2-1.8,0.5-2.7,0.7c-0.6,0.1-1.3,0.2-1.9,0.1c-2.1-0.6-4.2-1.3-6.3-1.9c-2.5-0.7-5-1.2-7.4-1.9
	c-3.8-1-7.5-2.2-11.3-3.2c-2.5-0.7-5-1.3-7.4-2c-4-1.1-8-2.3-12-3.5c-2-0.6-4.1-1-6.1-1.5c-3.2-0.9-6.5-1.7-9.7-2.7
	c-1.9-0.6-2.4-1.4-2.4-3.5c0-12.7-0.1-25.5-0.1-38.2C0.2,54.9,0.1,40.2,0,25.5c0-2,0-4,0-6c0-1.4,1.3-2.9,2.8-3.3
	c7.2-1.9,14.5-3.8,21.7-5.7C31.1,8.8,37.7,7,44.4,5.2c5.7-1.5,11.3-3.1,17-4.7C62.2,0.3,63.1,0.2,64.2,0z M122,67.6
	c0-0.1,0-0.2,0-0.4c0-3.7-0.2-7.1-0.2-10.8c0-8.6,0-17.2,0-25.8c0-2.1-0.6-2.6-2.3-2.1c-2.4,0.8-4.7,1.4-7.1,2.1
	c-4,1.1-8,2-11.9,3.1c-5.7,1.5-11.3,3.1-17,4.6c-4.9,1.3-9.8,2.5-14.6,3.8c-2.4,0.6-2.4,0.7-2.3,3.3c0,7.8,0.1,15.6,0,23.4
	c-0.2,16.8-0.6,33.6-0.9,50.4c0,1.6,0.4,2.1,2,2c0.4,0,0.7-0.1,1.1-0.2c3.1-0.9,6.3-1.8,9.4-2.6c2.5-0.7,5-1.3,7.4-2
	c1.7-0.4,3.3-0.9,5-1.4c2.4-0.7,4.8-1.4,7.3-2.1c2.4-0.7,4.9-1.3,7.3-1.9c2.4-0.7,4.7-1.4,7.1-2.1c2.7-0.8,5.3-1.7,8-2.3
	c1.6-0.4,2-1.3,2-3C122.1,91.7,122,79.7,122,67.6z M60.5,81.6c-0.1,0-0.2,0-0.3,0c0-12.4,0-24.9,0-37.3c0-1.2-0.4-1.9-1.4-2.3
	c-0.6-0.2-1.1-0.4-1.7-0.6c-6.5-1.7-13-3.4-19.5-5.1c-5.4-1.4-10.7-2.9-16.1-4.3c-4.5-1.2-9-2.4-13.5-3.6c-0.9-0.2-1.4,0-1.6,0.9
	c-0.1,0.5-0.1,1-0.1,1.5c0,9.3,0,18.6-0.1,28c0,7.6-0.1,15.3-0.1,22.9C6.1,89.3,6,96.8,5.9,104.4c0,1.1,0.4,1.9,1.5,2.2
	c2,0.6,3.9,1.2,5.9,1.8c2,0.6,4,1.2,6,1.8c1,0.3,1.4-0.2,1.3-1.3c-0.1-1-0.1-2.1-0.2-3.1c-0.1-9-0.2-18-0.2-26.9
	c0-3.3,1.6-4.5,4.6-3.8c5.4,1.3,10.8,2.5,16.2,3.7c1.8,0.4,2.9,1.6,2.9,3.5c0,9.7-0.1,19.4-0.1,29.2c0,1.4-0.5,2.4-1.9,2.9
	c-0.4,0.1-0.9,0.7-0.8,1.1c0.1,0.5,0.5,1.1,0.9,1.2c2.1,0.6,4.2,1.1,6.3,1.7c2.8,0.8,5.6,1.4,8.3,2.3c2.9,1,3.8,0.5,3.8-2.7
	C60.5,105.8,60.5,93.7,60.5,81.6z M117.9,22.2c0-0.2,0.1-0.4,0.1-0.6c-1-0.4-1.9-0.8-2.9-1.1c-3-0.8-6-1.5-9-2.2
	c-4-1.1-8-2.2-12-3.3c-4.2-1.1-8.3-2.1-12.5-3.2c-5.5-1.5-11.1-3.1-16.6-4.6C64.4,7,63.7,7,63,7.2c-1.8,0.4-3.5,0.9-5.3,1.4
	c-7.4,2-14.8,4.1-22.2,6c-7.7,2-15.5,4-23.2,6c-0.7,0.2-1.4,0.7-2.1,1.1c0,0.2,0.1,0.3,0.1,0.5c0.5,0.2,1.1,0.4,1.6,0.6
	c5.7,1.5,11.5,2.9,17.2,4.4c5.7,1.5,11.4,3.1,17,4.6c4.8,1.3,9.6,2.6,14.5,3.8c1.5,0.4,3.1,0.8,4.5,0.5c4.3-0.9,8.6-2.1,12.9-3.3
	c5.4-1.5,10.8-3.1,16.2-4.5c7.4-2,14.9-3.8,22.4-5.7C117.1,22.5,117.5,22.3,117.9,22.2z M38.4,98.8c-0.1,0-0.1,0-0.2,0
	c0-4.1,0-8.2,0-12.3c0-1.6-0.7-2.3-2-2.6c-2.5-0.6-5.1-1.2-7.6-1.7c-2.1-0.4-2.5,0-2.5,2.3c0,6.1,0.1,12.1,0,18.2
	c0,2.3,0.5,4.8-0.9,7c-0.5,0.8-0.2,1.7,0.9,2.1c3.9,1.2,7.8,2.4,11.8,3.5c0.4,0.1,1.1,0,1.4-0.2c0.2-0.2,0.2-1,0-1.3
	c-0.9-1.5-0.8-3.1-0.8-4.7C38.4,105.6,38.4,102.2,38.4,98.8z"/>
</svg>
