<?xml version="1.0" encoding="utf-8"?>
<!-- Generator: Adobe Illustrator 19.0.0, SVG Export Plug-In . SVG Version: 6.00 Build 0)  -->
<svg version="1.1" id="Layer_1" xmlns="http://www.w3.org/2000/svg" xmlns:xlink="http://www.w3.org/1999/xlink" x="0px" y="0px"
	 viewBox="0 0 128 128" style="enable-background:new 0 0 128 128;" xml:space="preserve">
<path id="XMLID_46_" d="M64,17.6c12.6,0,25.1,0,37.7,0c4.8,0,9.4,0.9,13.6,3.1c3.7,1.9,6.7,4.7,8.9,8.1c3,4.7,4.1,9.8,3.8,15.3
	c-0.2,3.1-1,6.2-2.4,9.1c-1.7,3.5-4.1,6.4-7.2,8.9c-3.6,2.9-7.8,4.7-12.5,5.2c-2.3,0.3-4.6,0.2-6.9,0.1c-1.3,0-1.8,0.2-1.8,1.6
	C97,75.6,96.9,82.3,96.9,89c0,0.8,0,1.6,0,2.4c0,0.1,0,0.3,0,0.4c0.2,4.5,0.2,9.7,0.1,14.5c0,0.2,0,0.3,0,0.5
	c-0.1,0.8-0.2,1.5-0.4,2.2c0,0.1-0.1,0.2-0.1,0.3c-0.3,0.5-0.8,0.7-1.6,0.7c-4.6,0-9.2,0-13.8,0c-1.5,0-2.1-0.6-2.1-2
	c0-5-0.1-10-0.1-14.9c-0.1-5.9-0.2-11.8-0.2-17.6c0-1.8-1.5-3-2.9-3.1c-1.1-0.1-2.8,1.1-2.8,3c-0.1,6.6-0.2,13.2-0.2,19.8
	c-0.1,4.3-0.1,8.6-0.2,12.9c0,1.3-0.6,1.9-2,1.9c-4.2,0-8.4,0-12.6,0c-1.7,0-2.3-0.6-2.3-2.3c0-8.8-0.1-17.5-0.1-26.3
	c0-2.1-0.1-4.1-0.2-6.2c0-1.5-1.5-2.9-3-2.9c-1.2,0-2.8,1.6-2.8,3c0,3,0,6,0,9c-0.1,7.9-0.1,15.7-0.2,23.6c0,1.4-0.6,2.1-2.1,2.1
	c-2.7,0-5.4-0.1-8.1-0.1c-1.8,0-3.5,0.1-5.3,0.1c-1.7,0-2.2-0.5-2.2-2c-0.1-7.5-0.1-14.9-0.2-22.4C31.1,80.1,31,74.7,31,69.2
	c0-1.7-0.4-2-2.2-1.8c-3.6,0.4-7.2,0-10.7-1.1c-3.1-1-5.9-2.4-8.4-4.3c-3.7-2.9-6.4-6.5-8-10.8c-2.4-6.4-2.1-12.7,0.4-18.9
	c1.7-4.3,4.7-7.8,8.7-10.4c4.4-2.8,9.2-4.2,14.5-4.2C38.2,17.6,51.1,17.6,64,17.6C64,17.6,64,17.6,64,17.6z M63.8,21.6
	c-12.5,0-25,0-37.5,0c-4.1,0-8,0.7-11.5,2.6C8,27.9,4.8,33.7,4.2,41c-0.4,5.2,1,9.9,4.2,14.2c2.8,3.7,6.5,6.2,10.9,7.7
	c3.2,1.1,6.5,1.4,9.9,0.9c1.4-0.2,1.9-0.6,1.8-2c0-1.8-0.1-3.5-0.1-5.3c0-1.3,0.9-2.5,2-2.5c1.1,0,1.9,0.9,2,2.4c0,0.1,0,0.3,0,0.4
	c-0.1,6.3-0.1,12.7-0.2,19c-0.1,9.5-0.2,19-0.2,28.5c0,2.2,0.2,2.4,2.5,2.6c0.5,0,0.9,0,1.4,0c1.9,0,3.8-0.1,5.8,0
	c1.5,0,2.1-0.4,2.1-1.9c0-3.1,0-6.2,0-9.3c-0.1-6.9-0.2-13.7-0.2-20.6c0-2.7,1.4-4.8,3.9-5.8c2.5-1,5.1-0.7,7.3,1.4
	c1.3,1.2,1.8,2.6,1.8,4.3c-0.1,10-0.2,20.1-0.3,30.1c0,1.6,0.2,1.8,1.8,1.8c2.4,0,4.8,0,7.2,0c1.6,0,1.9-0.2,1.8-1.7
	c-0.1-9.2-0.1-18.4-0.2-27.6c0-1.2-0.1-2.5,0.2-3.7c0.5-2.4,1.9-4,4.4-4.7c4.7-1.3,8.6,1.7,8.5,6.3c0,4.8-0.1,9.7-0.2,14.5
	c-0.1,4.9-0.1,9.9-0.2,14.8c0,1.5,0.4,2.1,1.6,2.1c3,0,6,0,8.9,0c0.8,0,1.2-0.5,1.2-1.2c0-0.4,0-0.8,0-1.2
	c-0.1-15.4-0.2-30.9-0.3-46.3c0-0.8,0-1.6,0-2.4c0.1-0.9,0.7-1.5,1.6-1.7c1-0.2,1.6,0.3,1.9,1.1c0.2,0.4,0.2,0.9,0.2,1.4
	c0,1.8,0,3.5,0,5.3c0,1.3,0.5,1.7,1.8,1.9c6.4,0.7,12-0.9,17-4.8c4.4-3.5,7-8,7.8-13.4c0.6-4.1,0-8.1-1.7-11.9
	c-1.6-3.9-4.3-6.9-8-9.1c-3.7-2.1-7.8-3-12.1-3C89.2,21.6,76.5,21.6,63.8,21.6z"/>
</svg>
