<?xml version="1.0" encoding="utf-8"?>
<!-- Generator: Adobe Illustrator 19.0.0, SVG Export Plug-In . SVG Version: 6.00 Build 0)  -->
<svg version="1.1" id="Layer_1" xmlns="http://www.w3.org/2000/svg" xmlns:xlink="http://www.w3.org/1999/xlink" x="0px" y="0px"
	 viewBox="0 0 128 128" style="enable-background:new 0 0 128 128;" xml:space="preserve">
<path id="XMLID_54_" d="M64,128c-13.1,0-26.2,0-39.3,0c-3.8,0-7-1.5-9.4-4.7c-1.7-2.4-2.4-5.5-2.5-8.6c-0.1-1.5,0-3,0-4.5
	c-0.1-24.3-0.2-48.7-0.4-73c0-4.4-0.2-8.9,0-13.3c0.4-6.8,5.7-12.4,11.8-12.6c0.5,0,0.9,0,1.4,0c1.1,0,1.6-0.7,1.6-1.9
	c0-1.9,0-3.8-0.1-5.8C27,1.2,27.9,0,30,0c6.1,0,12.2,0,18.3,0c2.6,0,3.5,1.2,3.4,4.1c0,1.7,0,3.3,0,5c0,1.7,0.5,2.2,2,2.2
	c7,0,13.9,0,20.9,0c1.7,0,2.2-0.5,2.2-2.5c0-1.8-0.1-3.5,0-5.3c0-2.4,1-3.4,3.1-3.4c5.9,0,11.7,0,17.6,0c2.6,0,3.5,1,3.4,3.8
	c0,1.7,0,3.4-0.1,5.1c-0.1,1.5,0.6,2.1,1.8,2.2c1.3,0.2,2.6,0.3,3.9,0.6c3.9,1,6.4,3.8,8.1,7.7c0.9,2.1,1.1,4.4,1.1,6.7
	c-0.1,17.2-0.1,34.3-0.2,51.5c0,12.1-0.1,24.2-0.2,36.4c-0.1,5.3-1.7,9.9-6.2,12.5c-1.6,0.9-3.5,1.3-5.3,1.4
	C90.5,128,77.3,127.9,64,128C64,128,64,128,64,128z M17.1,69.9c-0.2,0-0.3,0-0.5,0c0,14.9,0.1,29.9-0.1,44.8
	c-0.1,4.9,4.2,9.6,8.7,9.6c20.3-0.1,40.5-0.1,60.8-0.1c5.5,0,11.1,0,16.6-0.1c1.4,0,2.9-0.2,4-0.9c3.3-1.9,4.9-5.2,4.8-9.4
	c-0.1-8.2-0.2-16.4-0.2-24.6c-0.1-21.4-0.2-42.8-0.3-64.1c0-3.6-1.8-6.8-4.9-7.7c-2.1-0.6-4.4-0.7-6.6-0.7c-2.2-0.1-3.4-1.1-3.4-3.7
	c0-1.8,0-3.5,0-5.3c0-1.8-0.5-2.3-2.1-2.3c-3.4,0-6.9,0-10.3,0c-1.6,0-2.1,0.6-2.1,2.3c0,1.7,0,3.4,0,5.1c0,2.7-0.9,3.8-3.4,3.8
	c-3.2,0-6.3,0-9.5,0c-6.3,0-12.6,0-18.8,0c-2.3,0-3-0.9-3-3.4c0-1.7,0-3.3,0-5c0-2.2-0.5-2.8-2.4-2.8c-3.5,0-7,0-10.5,0
	c-1.8,0-2.2,0.4-2.2,2.5c0,1.8,0,3.6,0,5.5c-0.1,2.2-1,3.2-3,3.3c-1.3,0-2.6,0-3.9,0c-4.4,0-8.1,4.1-8,9
	C17.2,40.3,17.1,55.1,17.1,69.9z"/>
<path id="XMLID_46_" d="M65,106.4c-9,0-17.9,0-26.9,0c-1.5,0-3.1,0-4.6,0c-2,0-2.9-0.9-2.9-3.2c0-8.1,0-16.2-0.1-24.3
	c-0.1-9.3-0.2-18.6-0.3-27.9c0-0.5,0-1,0-1.6c0.2-1.9,0.7-2.7,2.4-2.8c2.1-0.1,4.3-0.1,6.4-0.1c18.4,0,36.9,0,55.3,0
	c2.4,0,3.4,1.1,3.4,3.8c-0.1,15.7-0.2,31.4-0.3,47.1c0,2.1-0.1,4.2-0.2,6.4c-0.2,2.2-0.7,2.6-2.7,2.6
	C84.7,106.4,74.9,106.4,65,106.4C65,106.4,65,106.4,65,106.4z M64,101.8C64,101.8,64,101.8,64,101.8c9.1,0,18.2,0,27.3,0
	c1.9,0,2.2-0.3,2.2-2.4c0-5.7-0.1-11.4-0.2-17.2c-0.1-9.4-0.1-18.7-0.1-28.1c0-2-0.5-2.6-2.4-2.6c-1.3,0-2.5,0.2-3.8,0.2
	c-11.1,0-22.1,0-33.2,0c-5.7,0-11.4-0.1-17.1-0.1c-1.5,0-2.1,0.7-2.1,2.5C34.6,69,34.6,84,34.5,98.9c0,2.5,0.3,2.9,2.5,2.9
	C46,101.8,55,101.8,64,101.8z"/>
</svg>
