<?xml version="1.0" encoding="utf-8"?>
<!-- Generator: Adobe Illustrator 19.0.0, SVG Export Plug-In . SVG Version: 6.00 Build 0)  -->
<svg version="1.1" id="Layer_1" xmlns="http://www.w3.org/2000/svg" xmlns:xlink="http://www.w3.org/1999/xlink" x="0px" y="0px"
	 viewBox="0 0 128 128" style="enable-background:new 0 0 128 128;" xml:space="preserve">
<path id="XMLID_64_" d="M113.3,62c0,19,0,38,0,57c0,1.9,0,3.7,0,5.6c-0.1,2.6-0.9,3.4-3.4,3.4c-28,0-56,0-84,0c-2.7,0-5.5,0-8.2,0
	c-2.1,0-2.9-0.9-3-3c-0.1-11.7-0.2-23.4-0.3-35c-0.1-28.4-0.2-56.7-0.3-85.1c0-0.7,0-1.4,0.1-2.1c0.1-1.5,1.1-2.5,2.5-2.8
	C17.4,0,18.1,0,18.7,0C48.9,0,79,0,109.2,0c0.6,0,1.2,0,1.8,0.1c1.4,0.2,2.4,1.2,2.6,2.7c0.1,1.1,0.2,2.3,0.2,3.4
	c0,18.6,0,37.3,0,55.9C113.7,62,113.5,62,113.3,62z M108.4,64.5c-0.1,0-0.3,0-0.4,0c0-18.8,0-37.7,0-56.5c0-1.1-0.5-1.7-1.5-1.7
	c-0.9-0.1-1.9,0-2.8,0c-18.7,0-37.4,0-56.1,0c-8.6,0-17.2-0.1-25.8-0.1c-1.3,0-1.7,0.5-1.7,2.1c0,11.4-0.1,22.9-0.2,34.3
	c-0.1,11.4-0.2,22.9-0.3,34.3c-0.1,14-0.2,28.1-0.4,42.1c0,0.8,0,1.6,0.2,2.4c0.2,1.2,1,1.7,2.1,1.7c2.5,0,5,0.1,7.5,0.1
	c25.6,0,51.2,0,76.8,0c2.2,0,2.6-0.5,2.6-2.8c0-7.1-0.1-14.2-0.1-21.3C108.4,87.6,108.4,76.1,108.4,64.5z"/>
<path id="XMLID_54_" d="M90.1,70.3c0,9.8,0,19.6,0,29.4c0,2.8-0.8,3.7-3.5,3.7c-14.4,0-28.9,0-43.3,0c-0.6,0-1.1,0.1-1.7,0.1
	c-2.2,0.3-3.4-0.9-3.4-3.2c-0.1-18.3-0.2-36.7-0.3-55c0-1.1,0-2.2-0.2-3.2c-0.4-3.1,1.2-4.9,3.7-6.2c5.9-2.9,11.7-6.1,17.5-9.1
	c1-0.5,1.9-1,2.9-1.5c1.6-0.9,3.2-0.8,4.7,0.1c3.8,2.1,7.6,4.1,11.4,6.1c3.5,1.8,6.9,3.6,10.4,5.4c1.4,0.7,2.1,1.9,2.1,3.7
	c0,9.9,0,19.8,0,29.7C90.3,70.3,90.2,70.3,90.1,70.3z M43.4,69.5c-0.1,0-0.3,0-0.4,0c0,8.7,0,17.5,0,26.2c0,2.2,0.4,2.7,2.6,2.7
	c12.3,0,24.6,0,36.9,0c2,0,2.5-0.5,2.4-2.5c0-3.4-0.2-6.9-0.2-10.3c-0.1-11-0.1-22.1-0.1-33.1c0-3,0-5.9,0-8.9c0-1-0.2-1.9-1.2-2.5
	c-5.8-3-11.5-6-17.2-9c-1.5-0.8-2.9-0.9-4.4,0c-0.9,0.6-1.8,1-2.8,1.5c-4.6,2.4-9.2,5-13.9,7.3c-1.3,0.6-1.7,1.4-1.7,2.8
	C43.4,52.3,43.4,60.9,43.4,69.5z"/>
</svg>
