<?xml version="1.0" encoding="utf-8"?>
<!-- Generator: Adobe Illustrator 19.0.0, SVG Export Plug-In . SVG Version: 6.00 Build 0)  -->
<svg version="1.1" id="Layer_1" xmlns="http://www.w3.org/2000/svg" xmlns:xlink="http://www.w3.org/1999/xlink" x="0px" y="0px"
	 viewBox="0 0 128 128" style="enable-background:new 0 0 128 128;" xml:space="preserve">
<path id="XMLID_66_" d="M121.8,37c0,3.1,0,6.3,0,9.4c0,1.1,0.3,1.8,1.3,2.4c3.5,1.9,5.2,4.8,5.1,8.8c-0.2,7.9-0.1,15.9-0.1,23.8
	c0,3.9,0,7.8-1.2,11.6c-0.7,2.4-1.8,4.7-2.9,6.9c-1.6,3.4-4.2,6.2-7,8.6c-2.6,2.3-5.6,4.1-9,5.1c-2.7,0.7-5.4,1.5-8.2,2
	c-3.9,0.6-7.7-0.2-11.4-1.3c-4.2-1.3-8.1-3.4-11.5-6.4c-3.3-3-5.8-6.5-7.7-10.6c-2.2-4.7-2.6-9.7-2.7-14.7
	c-0.1-12.5-0.2-24.9-0.3-37.4c0-4.9,4-9,9-8.9c0.6,0,1.2,0.3,1.8,0.5c1.5,0.5,2.1,0.1,2.1-1.4c0-2.3-0.1-4.7,0-7
	c0.1-5.5,5.1-9.4,10.5-8.2c2.1,0.5,2,0.4,2.5-1.6c0.9-3.1,2.9-5.3,6-6.1c3.4-0.9,6.4-0.1,8.7,2.6c0.9,1.1,1.4,2.4,2,3.7
	c0.3,0.7,0.7,1,1.5,0.7c5.7-2.2,11.6,2.6,11.4,8.1C121.7,30.8,121.8,33.9,121.8,37C121.8,37,121.8,37,121.8,37z M70.5,66.4
	c-0.1,0-0.2,0-0.2,0c0,6.7-0.1,13.4,0.1,20.1c0.1,2.5,0.6,5.1,1.5,7.5c0.9,2.5,2.4,4.9,3.9,7.1c2.4,3.7,5.8,6.4,9.7,8.3
	c2.5,1.2,5.2,2.1,8.2,2.5c6.5,0.9,12.5-0.5,18-3.9c4.3-2.6,7.6-6.4,9.8-10.9c1.7-3.3,2.7-6.9,2.7-10.7c0-9.8-0.1-19.6-0.1-29.3
	c0-1.8-0.7-3.3-2.3-4.2c-3.2-1.6-6.4,0.6-6.3,4.3c0,0.8,0.1,1.5,0,2.3c-0.2,4.2-0.4,8.4-0.7,12.6c-0.3,3-0.8,6-1.3,8.9
	c-0.2,1-0.7,2-1.9,2c-0.6,0-1.5-0.5-1.8-1c-0.3-0.6-0.1-1.4,0-2.2c0.1-0.8,0.5-1.5,0.6-2.3c0.4-6.7,0.8-13.4,1-20.1
	c0.1-3.9,1.5-6.8,5-8.6c1-0.5,1.4-1.2,1.3-2.3c-0.1-5.9,0-11.8-0.1-17.8c0-1-0.2-2-0.6-2.9c-0.6-1.3-1.7-2.2-3.2-2.3
	c-2.6-0.2-4.6,1.7-4.6,4.5c-0.1,8.1-0.1,16.1-0.1,24.2c0,1.8,0,3.5-0.1,5.3c0,1.1-0.6,2-1.7,2.2c-1.1,0.2-1.8-0.6-2.2-1.5
	c-0.2-0.4-0.2-0.8-0.2-1.2c-0.1-8.7-0.1-17.4-0.1-26.1c0-3.4,0-6.7,0-10.1c-0.1-3.1-3.2-5.1-5.9-3.7c-1.8,0.9-2.5,2.5-2.4,4.5
	c0,5,0,10.1,0,15.1c0,8.7,0,17.4-0.1,26.1c0,1.5-0.9,2.6-2.1,2.6c-1.2,0-2.1-1.1-2.1-2.7c0-1.4,0.1-2.9,0.1-4.3
	c0-8.8-0.1-17.5-0.2-26.3c0-1.3,0-2.6-0.1-3.9c-0.1-1.6-1.4-3.2-2.9-3.6c-3-0.9-5.4,1.1-5.4,4.5c-0.1,6.6-0.1,13.2-0.2,19.8
	c0,6.9-0.1,13.8-0.1,20.7c0,0.7,0,1.4-0.2,2c-0.3,0.9-0.9,1.6-1.8,1.4c-0.7-0.2-1.2-1-1.7-1.6c-0.2-0.2-0.1-0.6-0.1-1
	c0-7.6-0.1-15.3-0.1-22.9c0-0.8,0-1.7-0.1-2.5c-0.3-3-3.7-5.7-6.8-3.1c-1.2,1-1.7,2.2-1.7,3.8C70.5,52.5,70.5,59.5,70.5,66.4z"/>
<path id="XMLID_63_" d="M61.3,64.9c0,6.4,0,12.8,0,19.3c0,4.6-0.6,9.1-2.6,13.2c-2.5,5.3-6,9.7-10.9,13c-2.7,1.8-5.5,3.3-8.5,4
	c-4.5,1.1-9.2,2.1-13.9,0.6c-0.2-0.1-0.5-0.2-0.7-0.2c-2.8,0-5.2-1.2-7.6-2.4c-3.1-1.5-5.9-3.5-8.3-6c-2.8-3-5-6.3-6.6-10.2
	C0.6,92.3,0,88.1,0,83.8c0-8.1-0.1-16.1-0.2-24.2c0-1.4,0.1-2.8,0.2-4.1c0.2-2.7,1.6-4.8,4-6.1c1.7-0.9,2.3-2,2.2-3.9
	C6,39.6,6.1,33.7,6,27.8C6,23.7,8.2,20,12.4,18.7c1.5-0.5,3-0.5,4.5,0.1c1.8,0.7,1.9,0.5,2.7-1.2c1.8-4.1,6.8-6.9,11.7-4.5
	c2.7,1.3,4.2,3.5,4.8,6.4c0.2,0.9,0.6,1.2,1.6,1c6-1.6,11.2,2.3,11.3,8.5c0,2.2,0,4.4,0,6.5c0,1.7,0.4,2,2,1.4
	c1.7-0.6,3.2-0.5,4.9,0.1c3.4,1,5.9,4.6,5.8,8.3c-0.1,6.6,0,13.2,0,19.8C61.5,64.9,61.4,64.9,61.3,64.9z M31.8,41.8
	C31.8,41.8,31.7,41.8,31.8,41.8c0-1,0-2.1,0-3.1c0-5.9,0-11.8,0-17.8c0-2.8-2.5-4.7-5.3-4.1c-1.9,0.4-3,2.1-3.1,4.5
	c0,3.1,0,6.1,0,9.2c0,8.9-0.1,17.9-0.1,26.8c0,1.1-0.9,2.2-1.9,2.3c-1,0.1-1.9-0.7-2.1-1.9C19,57.3,19,56.7,19,56.2
	c0-8.5,0-17-0.1-25.6c0-1.2,0-2.4,0-3.7c-0.2-2.3-2.2-4.2-4.3-4.2c-2.2,0-4.2,2.1-4.2,4.4c-0.1,6.5,0,13.1-0.1,19.6
	c0,1,0.4,1.5,1.3,1.9c3.3,1.7,5.2,4.4,5.2,8.3c0,4.3,0,8.6,0.3,12.8c0.2,3.5,0.9,7,1.4,10.5c0.2,1.3-0.2,2.5-1.2,2.8
	c-1.1,0.3-2.2-0.3-2.5-1.8c-0.5-2.5-1.1-4.9-1.3-7.4c-0.4-5.7-0.6-11.4-0.9-17.1c0-0.3,0-0.6-0.1-0.9c-0.4-2.4-2.9-4-5.3-3.4
	C5,53.2,4,54.7,4,57.4c-0.1,8.4-0.2,16.7-0.3,25.1c-0.1,4.2,0.1,8.3,1.7,12.2c0.8,2,1.8,4,3,5.7c2.4,3.6,5.6,6.5,9.4,8.5
	c1.9,1,3.9,2.2,6,2.5c3.4,0.5,6.8,1.3,10.5,0.6c4.5-0.9,8.6-2.5,12.2-5.1c3.3-2.4,6-5.6,7.9-9.3c2.1-4.1,3.1-8.4,3.1-13
	c-0.1-12.2-0.2-24.3-0.3-36.5c0-1,0.1-2.1,0-3.1c-0.2-2.4-2.2-4.4-4.3-4.3c-1.8,0.1-4.1,1.8-4.1,4.5c0,7.3-0.1,14.6-0.2,21.9
	c0,1.3,0.2,2.6-0.1,3.9c-0.1,0.7-0.8,1.5-1.4,1.9c-0.7,0.4-1.5,0-1.9-0.7c-0.3-0.6-0.6-1.4-0.6-2.1c-0.1-13.6-0.2-27.1-0.2-40.7
	c0-1.5-0.2-2.9-1.5-3.9c-1.3-1-2.7-1.2-4.2-0.7c-1.4,0.5-2.4,1.6-2.5,3.2c-0.1,1.4-0.2,2.8-0.2,4.3c0,6.7,0,13.3-0.1,20
	c0,3.7,0,7.3,0,11c0,1.4-0.8,2.2-2.1,2.2c-1.1,0-2-0.8-2.1-2.1c0-0.3,0-0.6,0-0.9C31.8,55.6,31.8,48.7,31.8,41.8z"/>
</svg>
