<?xml version="1.0" encoding="utf-8"?>
<!-- Generator: Adobe Illustrator 19.0.0, SVG Export Plug-In . SVG Version: 6.00 Build 0)  -->
<svg version="1.1" id="Layer_1" xmlns="http://www.w3.org/2000/svg" xmlns:xlink="http://www.w3.org/1999/xlink" x="0px" y="0px"
	 viewBox="0 0 128 128" style="enable-background:new 0 0 128 128;" xml:space="preserve">
<path id="XMLID_66_" d="M63.1,114.7c-7.4,0-14.7,0-22.1,0c-1.9,0-2.6-0.7-2.6-2.7c-0.1-9.3-0.2-18.5-0.3-27.8c0-2.8,0-3-2.6-3.9
	c-3-1.1-6-2-9-3c-5.8-2-11.7-3.9-17.5-5.9c-2.3-0.8-4.6-1.7-6.9-2.5c-2.2-0.9-2.8-3-1.6-5.2c1.4-2.4,2.7-4.9,4-7.3
	c2.7-5,5.5-9.9,8.2-14.9c1.6-3,3.2-6.1,4.8-9.1c2.8-5.1,5.6-10.1,8.3-15.1c0.5-0.8,0.8-1.7,1.4-2.5c1.1-1.6,2.5-1.9,4.2-1.2
	c1.8,0.8,3.6,1.5,5.3,2.2c2.2,1,4.4,2,6.6,3c2.4,1.1,4.8,2.1,7.3,3.2c4,1.7,7.9,3.5,11.9,5.2c0.7,0.3,1.8,0.4,2.5,0.1
	c4.3-1.8,8.6-3.8,12.9-5.7c2.2-1,4.5-1.9,6.7-2.8c2.8-1.2,5.6-2.5,8.4-3.7c1.1-0.5,2.2-1,3.3-1.5c2.1-0.9,4,0.1,5.1,2.4
	c1.3,2.7,2.7,5.4,4.2,8c1.4,2.6,2.8,5.1,4.2,7.7c3.5,6.4,7.1,12.8,10.5,19.2c1.7,3.2,3.4,6.4,5.1,9.6c0.6,1.1,1.2,2.2,1.8,3.2
	c1.3,2.2,0.6,4.3-1.7,5.1c-4.2,1.5-8.4,2.9-12.7,4.3c-4.3,1.5-8.5,3-12.8,4.5c-2.8,1-5.6,2-8.5,2.9c-1.4,0.4-1.9,1.2-1.9,2.7
	c0,9.4-0.1,18.8-0.2,28.2c0,2.8-0.9,3.6-3.6,3.4c-2.5-0.2-5-0.1-7.5-0.1C73.4,114.7,68.3,114.7,63.1,114.7z M64,84.3
	c0-0.1,0.1-0.2,0.1-0.2c0.3,0,0.6,0,0.8-0.1c1.2-0.5,2.4-1.1,3.7-1.6c5.9-2.1,11.9-4.2,17.8-6.2c5.6-1.9,11.1-3.9,16.7-5.8
	c3.9-1.3,7.9-2.6,11.8-3.9c1.7-0.6,3.3-1.3,4.9-2c0.8-0.4,1-1,0.4-1.9c-1.9-3.1-3.6-6.2-5.4-9.4c-1.4-2.6-2.8-5.1-4.2-7.7
	c-0.9-1.6-1.8-3.2-2.7-4.8c-1.5-2.8-3-5.5-4.5-8.3c-1.8-3.4-3.7-6.7-5.4-10.1c-0.7-1.4-1.5-1.8-2.9-1.2c-1.3,0.6-2.6,1.3-3.9,1.8
	c-4.5,2-9.1,4-13.6,6c-3.9,1.7-7.8,3.4-11.8,4.9c-1,0.4-2.3,0.4-3.4,0.1c-2.4-0.8-4.8-1.9-7.2-2.9c-2.4-1.1-4.8-2.2-7.2-3.3
	c-4.5-2-9.1-3.9-13.6-5.9c-2.9-1.3-3.5-1.6-4.7,1.5c0,0.1-0.1,0.2-0.2,0.4c-1.8,3.3-3.7,6.5-5.5,9.8c-2.6,4.7-5,9.4-7.6,14.1
	c-2.6,4.7-5.3,9.4-7.9,14.1c-1.3,2.3-1.1,2.9,1.4,3.9c0.2,0.1,0.3,0.1,0.5,0.2c4.4,1.4,8.7,2.8,13.1,4.4c6.7,2.4,13.4,4.9,20.1,7.3
	c4.2,1.5,8.4,2.7,12.6,4.1c1.5,0.5,3,1.1,4.5,1.7C61.8,83.5,62.9,83.9,64,84.3z M63.8,109.7C63.8,109.7,63.8,109.7,63.8,109.7
	c6.2,0,12.4,0,18.6,0c1.8,0,2.4-0.6,2.4-2.3c-0.1-7.4-0.2-14.9-0.2-22.3c0-1.3-0.6-1.7-1.7-1.5c-0.5,0.1-0.9,0.3-1.4,0.5
	c-1.7,0.6-3.4,1.2-5.2,1.8c-1.9,0.6-3.8,1.1-5.7,1.8c-1.6,0.6-3.2,1.3-4.8,2c-1.6,0.6-3.1,0.5-4.5-0.5c-0.3-0.2-0.6-0.4-0.9-0.5
	c-3-1-6-1.9-9.1-2.9c-1.8-0.6-3.6-1.2-5.3-1.9c-2-0.8-2.7-0.3-2.7,1.9c-0.1,4.5-0.1,9-0.2,13.5c0,2.8-0.1,5.6,0,8.3
	c0.1,1.9,0.5,2.1,2.2,2.1C51.5,109.7,57.7,109.7,63.8,109.7z"/>
</svg>
