<?xml version="1.0" standalone="no"?>
<!DOCTYPE svg PUBLIC "-//W3C//DTD SVG 20010904//EN"
 "http://www.w3.org/TR/2001/REC-SVG-20010904/DTD/svg10.dtd">
<svg version="1.0" xmlns="http://www.w3.org/2000/svg"
 width="570.000000pt" height="438.000000pt" viewBox="0 0 570.000000 438.000000"
 preserveAspectRatio="xMidYMid meet">

<g transform="translate(0.000000,438.000000) scale(0.100000,-0.100000)"
fill="#000000" stroke="none">
<path d="M2591 4349 c-260 -29 -510 -104 -751 -226 -91 -45 -166 -79 -168 -74
-8 24 -77 129 -100 155 -30 32 -142 120 -145 115 -2 -2 -10 -42 -20 -89 -30
-151 -105 -278 -322 -540 -263 -318 -328 -431 -471 -809 -41 -108 -96 -232
-122 -276 -79 -134 -243 -282 -429 -386 -24 -13 -43 -27 -43 -30 0 -3 12 -11
28 -18 60 -28 222 -141 285 -201 133 -124 189 -220 297 -510 101 -271 207
-462 357 -646 269 -330 315 -393 368 -507 34 -72 65 -173 65 -212 0 -37 11
-35 73 13 66 52 127 123 159 186 11 23 21 42 22 43 1 1 76 -35 166 -80 94 -47
220 -101 292 -125 604 -199 1248 -129 1801 195 43 25 79 44 81 42 2 -2 14 -29
28 -59 33 -73 92 -145 165 -202 62 -48 73 -50 73 -13 0 42 31 141 69 220 46
95 110 186 274 387 276 337 301 384 502 901 52 133 110 229 193 318 72 77 202
176 304 232 32 18 58 34 58 37 0 3 -33 24 -74 47 -109 64 -227 155 -293 227
-89 98 -145 200 -228 421 -129 342 -204 475 -414 734 -280 345 -348 455 -379
611 -9 47 -17 87 -19 89 -4 7 -123 -91 -157 -130 -19 -23 -50 -71 -68 -108
-18 -36 -34 -68 -35 -70 -1 -2 -33 14 -70 37 -243 144 -487 233 -768 283 -139
24 -448 34 -584 18z m379 -99 c332 -26 670 -134 938 -303 77 -49 82 -54 82
-87 0 -57 20 -160 44 -232 12 -37 18 -64 12 -61 -6 4 -44 34 -86 68 -625 505
-1551 526 -2214 51 -42 -31 -76 -54 -76 -53 0 1 7 27 16 57 8 30 17 98 19 150
l4 95 103 58 c260 145 558 235 853 257 150 11 160 11 305 0z m-1409 -216 c59
-119 50 -272 -25 -444 l-34 -78 44 -43 c93 -91 83 -140 -63 -336 -53 -70 -111
-160 -129 -199 -92 -197 -60 -393 102 -635 l74 -112 -38 -51 c-172 -228 -227
-442 -162 -630 27 -80 65 -143 167 -278 132 -174 140 -215 56 -308 -45 -50
-46 -53 -34 -83 66 -162 76 -200 75 -312 0 -118 -15 -170 -71 -243 l-25 -33
-53 109 c-58 118 -120 206 -284 407 -251 306 -322 427 -447 765 -114 311 -200
437 -396 588 l-97 75 56 39 c138 97 240 207 317 343 24 41 78 166 120 278 123
323 199 459 376 677 194 238 225 277 279 360 31 47 72 120 91 162 33 73 36 76
53 61 9 -9 31 -45 48 -79z m2788 -171 c33 -49 122 -162 197 -253 237 -288 315
-421 439 -755 80 -216 129 -311 212 -414 58 -73 187 -189 254 -228 28 -17 38
-33 20 -33 -20 0 -191 -142 -243 -201 -108 -125 -156 -216 -248 -464 -66 -181
-162 -378 -235 -485 -32 -47 -115 -155 -185 -240 -187 -229 -245 -311 -304
-432 l-54 -108 -26 35 c-56 73 -70 121 -70 240 -1 112 9 150 75 312 12 30 11
33 -33 82 -83 92 -75 137 54 308 103 136 141 198 168 279 65 188 10 402 -162
630 l-38 51 74 112 c123 184 171 345 147 491 -19 118 -66 206 -210 392 -107
140 -114 202 -27 287 l44 43 -34 78 c-88 203 -84 382 13 508 l25 34 44 -91
c23 -50 70 -130 103 -178z m-1368 57 c356 -36 691 -176 957 -401 62 -52 72
-64 65 -82 -4 -12 -8 -51 -8 -87 0 -83 18 -120 135 -275 125 -165 153 -223
158 -336 8 -158 -56 -306 -215 -495 l-42 -51 59 -74 c81 -101 146 -212 177
-300 22 -64 25 -86 21 -169 -5 -120 -31 -178 -151 -335 -127 -168 -142 -196
-142 -280 0 -38 4 -80 8 -92 7 -18 -3 -30 -65 -82 -212 -179 -464 -303 -739
-365 -391 -87 -797 -38 -1153 140 -104 52 -274 163 -344 222 l-32 29 21 48
c17 39 20 61 16 111 -6 76 -26 114 -144 269 -120 157 -146 216 -151 335 -3 82
0 105 22 169 30 88 95 198 176 300 l59 74 -42 51 c-147 175 -217 326 -217 469
0 127 38 209 180 392 39 50 80 110 92 135 32 65 35 145 9 205 l-21 48 32 29
c70 59 240 170 344 222 292 146 620 207 935 176z m1059 -3148 c-24 -63 -50
-190 -50 -244 l0 -43 -82 -52 c-632 -393 -1439 -411 -2097 -45 l-105 58 3 59
c2 53 -19 187 -36 232 -3 8 25 -7 63 -35 445 -324 1012 -431 1548 -292 132 34
289 94 396 151 102 55 254 158 315 213 28 25 53 45 57 46 3 0 -2 -22 -12 -48z"/>
<path d="M1269 3390 c-24 -14 -132 -184 -189 -298 -57 -114 -140 -321 -140
-350 0 -11 9 -31 21 -46 30 -38 79 -36 113 5 14 17 26 35 26 41 0 17 78 205
121 289 22 45 64 119 94 164 76 119 77 119 65 151 -19 48 -69 68 -111 44z"/>
<path d="M871 2416 c-167 -60 -207 -292 -70 -409 107 -92 275 -70 355 46 110
159 -4 379 -195 376 -31 0 -71 -6 -90 -13z"/>
<path d="M965 1695 c-14 -13 -25 -35 -25 -48 0 -32 70 -210 135 -342 72 -147
172 -297 206 -309 39 -13 77 0 94 34 19 36 14 51 -60 164 -68 105 -138 245
-190 381 -54 141 -103 178 -160 120z"/>
<path d="M4343 3378 c-40 -44 -37 -58 28 -159 76 -118 144 -252 199 -394 51
-129 70 -155 116 -155 36 0 74 37 74 72 0 28 -82 235 -138 347 -57 116 -168
288 -193 301 -30 16 -64 11 -86 -12z"/>
<path d="M4645 2411 c-22 -10 -55 -33 -73 -51 -54 -53 -67 -87 -67 -170 0 -83
13 -117 67 -170 88 -88 233 -94 327 -13 112 95 112 271 0 366 -67 58 -175 74
-254 38z"/>
<path d="M4637 1698 c-13 -13 -32 -45 -42 -73 -55 -157 -134 -317 -218 -444
-65 -98 -71 -115 -52 -151 17 -32 51 -46 90 -36 51 13 193 250 286 481 32 80
59 157 59 171 0 32 -42 74 -74 74 -14 0 -36 -10 -49 -22z"/>
</g>
</svg>
