<?xml version="1.0" standalone="no"?>
<!DOCTYPE svg PUBLIC "-//W3C//DTD SVG 20010904//EN"
 "http://www.w3.org/TR/2001/REC-SVG-20010904/DTD/svg10.dtd">
<svg version="1.0" xmlns="http://www.w3.org/2000/svg"
 width="512.000000pt" height="512.000000pt" viewBox="0 0 512.000000 512.000000"
 preserveAspectRatio="xMidYMid meet">

<g transform="translate(0.000000,512.000000) scale(0.100000,-0.100000)"
fill="#000000" stroke="none">
<path d="M2513 4949 c-44 -13 -90 -63 -104 -111 -6 -25 -9 -111 -7 -222 3
-165 5 -184 25 -216 61 -99 205 -99 266 0 21 33 22 47 22 240 0 187 -2 208
-20 238 -36 60 -115 91 -182 71z"/>
<path d="M915 4286 c-57 -25 -95 -85 -95 -147 0 -53 35 -101 167 -231 140
-137 176 -157 249 -143 51 9 110 68 119 119 14 73 -6 109 -143 249 -70 71
-144 138 -164 148 -43 22 -90 24 -133 5z"/>
<path d="M4070 4281 c-19 -10 -92 -77 -162 -148 -137 -140 -157 -176 -143
-249 9 -51 68 -110 119 -119 73 -14 109 6 249 143 145 143 172 183 164 250
-12 109 -133 174 -227 123z"/>
<path d="M2400 3990 c-640 -79 -1142 -551 -1257 -1183 -23 -128 -23 -381 1
-502 79 -402 295 -724 637 -950 53 -35 105 -77 115 -92 17 -25 20 -55 25 -303
6 -263 7 -278 33 -357 63 -194 210 -340 411 -409 69 -24 95 -28 195 -27 97 0
128 4 196 26 85 28 175 81 243 142 63 57 137 175 167 268 26 78 28 95 33 352
5 203 10 277 21 298 9 18 60 60 135 110 328 222 544 549 621 942 24 121 24
374 1 502 -109 598 -574 1065 -1164 1168 -110 20 -315 27 -413 15z m431 -343
c207 -54 376 -150 521 -297 395 -399 438 -1015 102 -1463 -82 -109 -173 -193
-297 -274 -179 -117 -249 -219 -270 -396 l-11 -97 -317 0 -316 0 -6 78 c-11
144 -77 273 -178 351 -26 20 -83 58 -126 86 -299 192 -493 555 -493 925 0 300
115 577 329 791 165 165 366 271 596 314 122 22 343 14 466 -18z m45 -2893
c-14 -102 -81 -195 -174 -241 -49 -24 -69 -28 -142 -28 -103 0 -157 22 -225
90 -52 52 -82 111 -91 179 l-7 46 323 0 323 0 -7 -46z"/>
<path d="M2485 3189 c-87 -13 -195 -68 -261 -133 -96 -96 -161 -277 -134 -376
20 -74 108 -131 177 -114 78 19 116 66 132 162 17 108 76 158 176 150 92 -8
151 -78 143 -172 -7 -86 -63 -137 -162 -150 -60 -7 -105 -34 -131 -78 -17 -28
-20 -51 -20 -158 0 -111 2 -129 22 -160 29 -47 77 -74 133 -74 82 0 142 55
156 143 6 39 11 44 63 71 179 91 282 290 251 488 -41 263 -281 439 -545 401z"/>
<path d="M2513 1909 c-44 -13 -90 -62 -103 -110 -41 -150 149 -259 259 -148
83 83 46 227 -67 259 -43 11 -46 11 -89 -1z"/>
<path d="M273 2709 c-44 -13 -90 -62 -103 -110 -22 -81 29 -167 112 -190 25
-6 111 -9 222 -7 165 3 184 5 216 25 99 61 99 205 0 266 -32 20 -49 22 -225
24 -104 1 -204 -2 -222 -8z"/>
<path d="M4433 2709 c-44 -13 -90 -62 -103 -110 -22 -81 29 -167 112 -190 25
-6 111 -9 222 -7 165 3 184 5 216 25 47 29 74 77 74 133 0 56 -27 104 -74 133
-32 20 -49 22 -225 24 -104 1 -204 -2 -222 -8z"/>
<path d="M1141 1344 c-45 -19 -277 -248 -303 -298 -67 -130 78 -275 208 -208
21 11 96 78 166 149 135 139 157 176 144 247 -13 67 -85 127 -153 126 -15 -1
-44 -8 -62 -16z"/>
<path d="M3855 1346 c-42 -18 -83 -69 -91 -112 -13 -71 9 -108 144 -247 70
-71 145 -138 166 -149 130 -67 275 78 208 208 -27 52 -259 279 -305 299 -44
18 -82 19 -122 1z"/>
</g>
</svg>
